<?xml version="1.0" encoding="UTF-8"?>
<svg version="1.1" xmlns="http://www.w3.org/2000/svg" width="289" height="196">
<path d="M0 0 C11.70147566 11.06719006 19.92831323 25.16890991 23.08984375 40.9765625 C23.13586671 42.64259361 23.14975704 44.31097306 23.08984375 45.9765625 C24.05921875 46.1828125 25.02859375 46.3890625 26.02734375 46.6015625 C31.03073865 48.03398604 34.91279089 50.96100448 39.08984375 53.9765625 C39.78464844 54.45351562 40.47945312 54.93046875 41.1953125 55.421875 C46.97431254 59.51300462 53.80432976 64.65401448 55.08984375 71.9765625 C55.74984375 71.9765625 56.40984375 71.9765625 57.08984375 71.9765625 C65.50962371 87.34470456 68.88983396 102.77705277 64.40234375 119.9140625 C59.79760887 135.18323545 50.45067215 146.36261341 37.08984375 154.9765625 C36.48527344 155.38519531 35.88070312 155.79382813 35.2578125 156.21484375 C24.33073705 163.10076234 12.74051691 163.56674822 0.27441406 163.52587891 C-1.494485 163.53459041 -3.26337654 163.54496242 -5.03225708 163.55685425 C-9.805282 163.58347502 -14.57798865 163.58480936 -19.35107327 163.57972765 C-23.35157123 163.57757687 -27.35200628 163.58738406 -31.35249066 163.59693849 C-40.80014652 163.61907482 -50.24764331 163.62003482 -59.6953125 163.60791016 C-69.40436336 163.59584052 -79.11283381 163.62043914 -88.82178569 163.66305029 C-97.19082322 163.69841454 -105.55967712 163.71026415 -113.92878652 163.70377481 C-118.91255196 163.70016898 -123.89590353 163.70521981 -128.87960052 163.73320389 C-133.57166691 163.75856787 -138.26283676 163.75428109 -142.9548912 163.72838211 C-144.66394494 163.72369558 -146.37306385 163.7289561 -148.08204269 163.74562836 C-164.44887106 163.89362028 -177.52086547 159.72266671 -190.91015625 149.9765625 C-191.96203125 149.2134375 -193.01390625 148.4503125 -194.09765625 147.6640625 C-201.63690201 140.45989433 -206.6918633 132.47443867 -210.91015625 122.9765625 C-211.27367187 122.19925781 -211.6371875 121.42195312 -212.01171875 120.62109375 C-217.18538491 105.39251988 -214.49664149 86.22069148 -207.91015625 71.9765625 C-205.19132815 66.47482618 -202.01448909 61.54042995 -198.2421875 56.703125 C-197.06470483 55.17688647 -195.97942911 53.58047179 -194.91015625 51.9765625 C-194.25015625 51.9765625 -193.59015625 51.9765625 -192.91015625 51.9765625 C-192.25015625 50.6565625 -191.59015625 49.3365625 -190.91015625 47.9765625 C-190.25015625 47.9765625 -189.59015625 47.9765625 -188.91015625 47.9765625 C-188.41515625 46.4915625 -188.41515625 46.4915625 -187.91015625 44.9765625 C-186.39477539 43.61376953 -186.39477539 43.61376953 -184.4453125 42.234375 C-183.73262207 41.72777344 -183.01993164 41.22117188 -182.28564453 40.69921875 C-181.5223584 40.17199219 -180.75907227 39.64476562 -179.97265625 39.1015625 C-179.19647949 38.56144531 -178.42030273 38.02132812 -177.62060547 37.46484375 C-168.82314137 31.42726037 -159.98599451 27.42394916 -149.91015625 23.9765625 C-149.12511719 23.68652344 -148.34007812 23.39648438 -147.53125 23.09765625 C-143.60097024 21.68275553 -140.4092788 20.91446668 -136.22265625 20.8515625 C-133.2476052 20.60838441 -132.25088669 20.34201715 -130.1875 18.12890625 C-128.66218212 15.79216607 -127.2874098 13.40277079 -125.91015625 10.9765625 C-124.3428367 8.82585178 -122.72034594 6.93760134 -120.91015625 4.9765625 C-120.25015625 4.9765625 -119.59015625 4.9765625 -118.91015625 4.9765625 C-118.41515625 3.4915625 -118.41515625 3.4915625 -117.91015625 1.9765625 C-109.49424457 -5.86694342 -99.40212226 -10.60224193 -88.91015625 -15.0234375 C-88.06582031 -15.384375 -87.22148437 -15.7453125 -86.3515625 -16.1171875 C-57.84680289 -26.89403423 -23.03059013 -18.78472714 0 0 Z " fill="#4F7AF2" transform="translate(218.91015625,25.0234375)"/>
<path d="M0 0 C1.12390137 -0.00241196 2.24780273 -0.00482391 3.40576172 -0.00730896 C5.77249698 -0.00633323 8.13925583 0.00699444 10.50585938 0.03198242 C14.11407553 0.06630234 17.71984134 0.052621 21.328125 0.03320312 C23.63542702 0.04010204 25.94272276 0.04977483 28.25 0.0625 C29.3210498 0.05754013 30.39209961 0.05258026 31.49560547 0.04747009 C37.5349403 0.1417298 43.42846556 0.43513822 48.125 4.62890625 C51.64791414 9.69313219 52.71224783 13.53976308 52.64257812 19.73217773 C52.6495874 20.51038879 52.65659668 21.28859985 52.66381836 22.09039307 C52.68131689 24.6439664 52.66980414 27.19641684 52.65625 29.75 C52.65894754 31.53687247 52.66283215 33.3237435 52.66784668 35.11061096 C52.67373092 38.8487043 52.66521461 42.58641427 52.64648438 46.32446289 C52.62371191 51.10037789 52.63681371 55.87539278 52.66077423 60.65127468 C52.67527553 64.33948971 52.67060616 68.02749378 52.66026306 71.71571541 C52.65760687 73.47586233 52.66082632 75.23602881 52.67018127 76.99615288 C52.68041693 79.46335948 52.66474916 81.92913907 52.64257812 84.39624023 C52.65067505 85.11389053 52.65877197 85.83154083 52.66711426 86.57093811 C52.55913255 93.10412051 50.39036961 98.42162304 45.6875 103.00390625 C40.74804193 106.13624552 36.93978146 106.87870377 31.09005737 106.87614441 C30.39369805 106.87855882 29.69733872 106.88097324 28.97987759 106.88346082 C26.65299275 106.8890841 24.32638411 106.88044525 21.99951172 106.87182617 C20.32878546 106.87289938 18.65805956 106.87483863 16.98733521 106.87757874 C12.45447975 106.88242332 7.92172284 106.8747767 3.3888793 106.86462569 C-1.35295913 106.85584085 -6.0947945 106.85760271 -10.8366394 106.85798645 C-18.79752247 106.85705014 -26.7583674 106.84836967 -34.71923828 106.8347168 C-43.92888031 106.81898086 -53.13848061 106.81371909 -62.34813511 106.81445235 C-71.20346922 106.81506223 -80.05878971 106.80996115 -88.91411972 106.80166054 C-92.68519065 106.79812621 -96.45625675 106.79629708 -100.22732925 106.79576683 C-104.66453458 106.79476387 -109.10170474 106.78867111 -113.53889847 106.77860069 C-115.16954839 106.77567487 -116.80020236 106.77445049 -118.4308548 106.77502823 C-120.65194906 106.77551746 -122.87294418 106.76987767 -125.09402466 106.76261902 C-126.33840364 106.76094317 -127.58278263 106.75926733 -128.86487007 106.7575407 C-131.875 106.62890625 -131.875 106.62890625 -134.875 105.62890625 C-134.875 104.63890625 -134.875 103.64890625 -134.875 102.62890625 C-133.9675 102.03078125 -133.06 101.43265625 -132.125 100.81640625 C-126.77422615 97.21492385 -124.47301909 92.10793772 -121.9921875 86.2890625 C-121.7363237 85.69351563 -121.4804599 85.09796875 -121.21684265 84.484375 C-120.67141501 83.21288071 -120.12866333 81.94023563 -119.58840942 80.66653442 C-118.7384227 78.66413241 -117.8799623 76.66555367 -117.01928711 74.66772461 C-114.31699641 68.38717951 -111.64699376 62.09415564 -109.01171875 55.78515625 C-108.57424316 54.7499585 -108.13676758 53.71476074 -107.68603516 52.64819336 C-106.87901302 50.73699955 -106.08236441 48.82137733 -105.29833984 46.90063477 C-102.19581833 39.58090107 -98.2847533 33.14853907 -90.875 29.62890625 C-85.87531926 27.61151574 -81.59183271 27.34862549 -76.29296875 27.35546875 C-74.62173815 27.33517555 -72.95051424 27.31432469 -71.27929688 27.29296875 C-68.67271238 27.27043273 -66.06639407 27.25391502 -63.4597168 27.24804688 C-47.4612392 27.35960438 -47.4612392 27.35960438 -33.9375 19.50390625 C-33.28910156 18.90578125 -32.64070313 18.30765625 -31.97265625 17.69140625 C-28.77107457 14.54348237 -25.64746754 11.32073847 -22.5625 8.05859375 C-15.2675186 1.46342161 -9.82857679 -0.12166505 0 0 Z " fill="#EDEEFD" transform="translate(186.875,81.37109375)"/>
<path d="M0 0 C0.99 0.99 0.99 0.99 2 2 C1.36835938 1.9278125 0.73671875 1.855625 0.0859375 1.78125 C-13.11424751 0.41177836 -24.36777226 0.5306123 -37 5 C-38.23363281 5.433125 -38.23363281 5.433125 -39.4921875 5.875 C-54.65643829 11.91911419 -65.14291686 23.57903871 -72 38 C-76.0619882 48.04991907 -77.18094608 57.11345641 -77.1875 67.875 C-77.20586914 69.45087891 -77.20586914 69.45087891 -77.22460938 71.05859375 C-77.23587005 77.05677811 -76.88878891 82.28724197 -75 88 C-74.01 88.99 -74.01 88.99 -73 90 C-72.875 92.625 -72.875 92.625 -73 95 C-72.34 95 -71.68 95 -71 95 C-70.06576355 98.01031744 -69.95550089 98.86650268 -71 102 C-69.68 102.66 -68.36 103.32 -67 104 C-67 104.66 -67 105.32 -67 106 C-66.01 105.67 -65.02 105.34 -64 105 C-63.6489812 109.91426326 -64.59022863 112.73655834 -67 117 C-67.391875 117.78375 -67.78375 118.5675 -68.1875 119.375 C-68.455625 119.91125 -68.72375 120.4475 -69 121 C-69.66 121 -70.32 121 -71 121 C-71.0928125 122.36125 -71.0928125 122.36125 -71.1875 123.75 C-72 127 -72 127 -74 129.4375 C-77.72101932 131.3755309 -79.79227001 131.02191086 -83.81640625 130.26171875 C-86.16825148 129.9798339 -87.73064257 130.42903161 -90 131 C-91.75 129.6875 -91.75 129.6875 -93 128 C-93 127.34 -93 126.68 -93 126 C-94.32 126.33 -95.64 126.66 -97 127 C-97 125.33333333 -97 123.66666667 -97 122 C-98.98 122.495 -98.98 122.495 -101 123 C-101.495 122.01 -101.495 122.01 -102 121 C-103.485 120.505 -103.485 120.505 -105 120 C-105.79953138 116.71303767 -106.09658936 115.28976808 -105 112 C-106.36125 112.309375 -106.36125 112.309375 -107.75 112.625 C-111.11621369 113.01340927 -112.32009821 112.98511244 -115 111 C-115.33 110.01 -115.66 109.02 -116 108 C-116.62519531 107.72414063 -117.25039062 107.44828125 -117.89453125 107.1640625 C-120.9080284 105.49797317 -121.4210511 103.53113448 -122.6875 100.375 C-123.10386719 99.37210937 -123.52023438 98.36921875 -123.94921875 97.3359375 C-129.2446997 80.52426193 -126.5033944 61.16006745 -118.83984375 45.65234375 C-116.3759101 41.03345848 -113.54982681 36.85281222 -110.33203125 32.7265625 C-109.15454858 31.20032397 -108.06927286 29.60390929 -107 28 C-106.34 28 -105.68 28 -105 28 C-104.34 26.68 -103.68 25.36 -103 24 C-102.34 24 -101.68 24 -101 24 C-100.67 23.01 -100.34 22.02 -100 21 C-98.48461914 19.63720703 -98.48461914 19.63720703 -96.53515625 18.2578125 C-95.82246582 17.75121094 -95.10977539 17.24460937 -94.37548828 16.72265625 C-93.61220215 16.19542969 -92.84891602 15.66820313 -92.0625 15.125 C-91.28632324 14.58488281 -90.51014648 14.04476562 -89.71044922 13.48828125 C-80.91023818 7.44881269 -72.0745674 3.45710486 -62 0 C-61.23816406 -0.29003906 -60.47632812 -0.58007812 -59.69140625 -0.87890625 C-42.13842421 -7.35567502 -17.50166057 -6.17175675 0 0 Z " fill="#7F7FEF" transform="translate(131,49)"/>
<path d="M0 0 C-0.33 0.99 -0.66 1.98 -1 3 C-1.66 3 -2.32 3 -3 3 C-3 3.66 -3 4.32 -3 5 C0.62250967 6.63805746 3.55970949 7.28064621 7.5246582 7.41064453 C8.60540115 7.45053497 9.6861441 7.49042542 10.79963684 7.53152466 C11.9550145 7.56494965 13.11039215 7.59837463 14.30078125 7.6328125 C15.49229294 7.67437469 16.68380463 7.71593689 17.91142273 7.75875854 C21.71155084 7.88935763 25.51195154 8.00733596 29.3125 8.125 C31.89130405 8.21140782 34.47008069 8.2986376 37.04882812 8.38671875 C43.36559863 8.60067961 49.68263931 8.80428406 56 9 C56 9.33 56 9.66 56 10 C55.34711502 10.00808685 54.69423004 10.01617371 54.02156067 10.02450562 C47.22438119 10.11058374 40.42749224 10.21008916 33.63061523 10.31738281 C31.09420655 10.35565843 28.55774384 10.39051376 26.02124023 10.421875 C22.37464089 10.46755563 18.72841298 10.5255463 15.08203125 10.5859375 C13.94852737 10.59748871 12.8150235 10.60903992 11.64717102 10.62094116 C10.05608772 10.6507457 10.05608772 10.6507457 8.43286133 10.68115234 C7.03720695 10.70113785 7.03720695 10.70113785 5.61335754 10.7215271 C2.77723422 11.02373737 0.58733603 11.82627223 -2 13 C-1.2786084 12.98889694 -0.5572168 12.97779388 0.18603516 12.96635437 C7.01168908 12.86582903 13.8372312 12.78987174 20.66343689 12.74093914 C24.17226959 12.71493529 27.68048648 12.67971028 31.18896484 12.62280273 C35.23020054 12.5576702 39.27079771 12.53374382 43.3125 12.51171875 C44.5617627 12.48591232 45.81102539 12.4601059 47.09814453 12.43351746 C55.9814762 12.43067587 60.96175314 14.10451945 67.3203125 20.23828125 C68.21363281 21.26501953 68.21363281 21.26501953 69.125 22.3125 C72.15263401 25.55337351 72.15263401 25.55337351 76.5 26.5 C77.325 26.335 78.15 26.17 79 26 C77.50995361 31.44601461 73.76912233 34.7100463 69.875 38.5625 C68.9159375 39.5515332 68.9159375 39.5515332 67.9375 40.56054688 C60.41178591 48.07870503 53.33887591 51.11958005 42.7109375 51.17578125 C41.02993561 51.19899539 39.34894601 51.22311336 37.66796875 51.24804688 C35.02840133 51.28301613 32.38928155 51.31242696 29.74951172 51.32592773 C16.25594316 51.06669638 16.25594316 51.06669638 4 56 C3.071875 56.5878125 2.14375 57.175625 1.1875 57.78125 C-1.69900253 60.70898828 -3.26477995 63.80384021 -5 67.5 C-5.47566406 68.46679688 -5.47566406 68.46679688 -5.9609375 69.453125 C-8.37783284 74.44159698 -10.5056293 79.54100956 -12.62109375 84.66308594 C-14.9316666 90.25460677 -17.28017552 95.82934104 -19.65673828 101.39306641 C-20.22278511 102.72345672 -20.78491159 104.05552132 -21.34326172 105.38916016 C-22.16698461 107.35489514 -23.00398214 109.3145124 -23.84375 111.2734375 C-24.33037109 112.42247559 -24.81699219 113.57151367 -25.31835938 114.75537109 C-27.66001826 119.27346728 -30.12497008 123.0833187 -34.8125 125.375 C-35.8953125 125.684375 -35.8953125 125.684375 -37 126 C-37 126.66 -37 127.32 -37 128 C-49.91790799 125.74449226 -60.15131457 118.56614641 -69 109 C-69.52722656 108.43152344 -70.05445313 107.86304688 -70.59765625 107.27734375 C-75.24613651 102.10137637 -75.24613651 102.10137637 -76 98 C-75.01 98.33 -74.02 98.66 -73 99 C-73 99.99 -73 100.98 -73 102 C-69.7 102.33 -66.4 102.66 -63 103 C-62.67 103.99 -62.34 104.98 -62 106 C-62.495 106.495 -62.495 106.495 -63 107 C-62.59070014 109.05396726 -62.59070014 109.05396726 -62 111 C-61.01 111 -60.02 111 -59 111 C-58.505 111.99 -58.505 111.99 -58 113 C-56.68 113 -55.36 113 -54 113 C-54.33 114.32 -54.66 115.64 -55 117 C-53.68 117 -52.36 117 -51 117 C-51 117.66 -51 118.32 -51 119 C-48.22222764 120.724342 -48.22222764 120.724342 -45.0625 120.625 C-44.0415625 120.315625 -44.0415625 120.315625 -43 120 C-39.50288869 119.82066096 -36.4092392 120.22074533 -33 121 C-32.505 119.515 -32.505 119.515 -32 118 C-31.34 118 -30.68 118 -30 118 C-30 115.36 -30 112.72 -30 110 C-29.67 110.66 -29.34 111.32 -29 112 C-24.85722941 107.16676765 -22.63062739 103.46402065 -23 97 C-24.175625 96.5978125 -24.175625 96.5978125 -25.375 96.1875 C-28 95 -28 95 -30 92 C-29.625 88.8125 -29.625 88.8125 -29 86 C-29.66 86 -30.32 86 -31 86 C-31.28875 85.071875 -31.5775 84.14375 -31.875 83.1875 C-32.8875 79.90208333 -32.8875 79.90208333 -35 77 C-39.48518232 58.65415748 -36.38032802 37.15132525 -26.9765625 20.96484375 C-21.14004501 12.21006752 -11.45718265 -0.89535147 0 0 Z " fill="#234AC2" transform="translate(89,58)"/>
<path d="M0 0 C0.66 0 1.32 0 2 0 C2.8125 2.3125 2.8125 2.3125 3 6 C2.22637065 7.58424214 1.39664504 9.1414539 0.53515625 10.6796875 C-3.02353903 18.23182814 -2.58493004 25.67995369 -2.375 33.8125 C-2.35844755 35.30140918 -2.34411134 36.7903447 -2.33203125 38.27929688 C-2.25819531 44.27426535 -2.12486087 50.09192134 -1 56 C-0.01 53.03 -0.01 53.03 1 50 C3.66666667 50 6.33333333 50 9 50 C9.33 49.01 9.66 48.02 10 47 C11.9375 45.875 11.9375 45.875 14 45 C14.66 44.67 15.32 44.34 16 44 C18.99039752 43.86674777 21.96124502 43.78989924 24.953125 43.75390625 C26.78776498 43.72095639 28.62240028 43.68774494 30.45703125 43.65429688 C33.35136565 43.60696536 36.24568262 43.56255872 39.14013672 43.52319336 C41.93217208 43.48333442 44.72381056 43.43181121 47.515625 43.37890625 C48.37520813 43.3704921 49.23479126 43.36207794 50.12042236 43.35340881 C54.73490035 43.25906043 58.74600779 43.00462444 63 41 C63.33 40.01 63.66 39.02 64 38 C66.475 37.505 66.475 37.505 69 37 C69.33 36.01 69.66 35.02 70 34 C70.66 34 71.32 34 72 34 C71.896875 33.2575 71.79375 32.515 71.6875 31.75 C72 29 72 29 74.375 26.8125 C75.24125 26.214375 76.1075 25.61625 77 25 C77.66 24.34 78.32 23.68 79 23 C82.125 22.875 82.125 22.875 85 23 C82.9416342 27.53408471 79.85592662 30.51177584 76.375 34 C75.48748047 34.92425781 75.48748047 34.92425781 74.58203125 35.8671875 C67.24060383 43.25618356 60.08794241 46.12090701 49.7109375 46.17578125 C48.02993561 46.19899539 46.34894601 46.22311336 44.66796875 46.24804688 C42.02840133 46.28301613 39.38928155 46.31242696 36.74951172 46.32592773 C23.25594316 46.06669638 23.25594316 46.06669638 11 51 C10.071875 51.5878125 9.14375 52.175625 8.1875 52.78125 C5.30099747 55.70898828 3.73522005 58.80384021 2 62.5 C1.52433594 63.46679688 1.52433594 63.46679688 1.0390625 64.453125 C-1.37783284 69.44159698 -3.5056293 74.54100956 -5.62109375 79.66308594 C-7.9316666 85.25460677 -10.28017552 90.82934104 -12.65673828 96.39306641 C-13.22278511 97.72345672 -13.78491159 99.05552132 -14.34326172 100.38916016 C-15.16698461 102.35489514 -16.00398214 104.3145124 -16.84375 106.2734375 C-17.33037109 107.42247559 -17.81699219 108.57151367 -18.31835938 109.75537109 C-20.66001826 114.27346728 -23.12497008 118.0833187 -27.8125 120.375 C-28.8953125 120.684375 -28.8953125 120.684375 -30 121 C-30 121.66 -30 122.32 -30 123 C-42.91790799 120.74449226 -53.15131457 113.56614641 -62 104 C-62.52722656 103.43152344 -63.05445313 102.86304688 -63.59765625 102.27734375 C-68.24613651 97.10137637 -68.24613651 97.10137637 -69 93 C-68.01 93.33 -67.02 93.66 -66 94 C-66 94.99 -66 95.98 -66 97 C-62.7 97.33 -59.4 97.66 -56 98 C-55.67 98.99 -55.34 99.98 -55 101 C-55.495 101.495 -55.495 101.495 -56 102 C-55.59070014 104.05396726 -55.59070014 104.05396726 -55 106 C-54.01 106 -53.02 106 -52 106 C-51.505 106.99 -51.505 106.99 -51 108 C-49.68 108 -48.36 108 -47 108 C-47.33 109.32 -47.66 110.64 -48 112 C-46.68 112 -45.36 112 -44 112 C-44 112.66 -44 113.32 -44 114 C-41.22222764 115.724342 -41.22222764 115.724342 -38.0625 115.625 C-37.0415625 115.315625 -37.0415625 115.315625 -36 115 C-32.50288869 114.82066096 -29.4092392 115.22074533 -26 116 C-25.505 114.515 -25.505 114.515 -25 113 C-24.34 113 -23.68 113 -23 113 C-23 110.36 -23 107.72 -23 105 C-22.67 105.66 -22.34 106.32 -22 107 C-17.85722941 102.16676765 -15.63062739 98.46402065 -16 92 C-17.175625 91.5978125 -17.175625 91.5978125 -18.375 91.1875 C-21 90 -21 90 -23 87 C-22.625 83.8125 -22.625 83.8125 -22 81 C-22.66 81 -23.32 81 -24 81 C-24.28875 80.071875 -24.5775 79.14375 -24.875 78.1875 C-25.8875 74.90208333 -25.8875 74.90208333 -28 72 C-31.39071151 58.13089615 -30.71575387 39.18390219 -25 26 C-22.6484375 23.421875 -22.6484375 23.421875 -20 21 C-18.41196694 19.16765416 -16.84907011 17.31321122 -15.3125 15.4375 C-14.54550781 14.50808594 -13.77851562 13.57867187 -12.98828125 12.62109375 C-11.32940657 10.43424717 -10.20429823 8.43609184 -9 6 C-7 4.875 -7 4.875 -5 4 C-4.34 3.34 -3.68 2.68 -3 2 C-2.01 2 -1.02 2 0 2 C0 1.34 0 0.68 0 0 Z " fill="#250E85" transform="translate(82,63)"/>
<path d="M0 0 C0 0.66 0 1.32 0 2 C0.88751953 2.00386719 0.88751953 2.00386719 1.79296875 2.0078125 C8.20328355 2.32153101 8.20328355 2.32153101 10.60546875 4.3671875 C11.78057212 5.87855122 12.89341932 7.43776845 14 9 C15.485 9.495 15.485 9.495 17 10 C17.495 11.485 17.495 11.485 18 13 C18.66 13.33 19.32 13.66 20 14 C22.17854707 17.2678206 23.49760034 20.38058265 25 24 C25.99 23.67 26.98 23.34 28 23 C29.67220971 22.91245202 31.34772199 22.88234005 33.0222168 22.88647461 C34.04304855 22.88655014 35.06388031 22.88662567 36.11564636 22.88670349 C37.21572525 22.89186478 38.31580414 22.89702606 39.44921875 22.90234375 C40.5769722 22.9037587 41.70472565 22.90517365 42.86665344 22.90663147 C46.47362912 22.9122353 50.08054304 22.92478847 53.6875 22.9375 C56.13085848 22.94251451 58.57421793 22.9470775 61.01757812 22.95117188 C67.01173987 22.96220597 73.00586552 22.97894785 79 23 C79 23.33 79 23.66 79 24 C78.42894531 24.00586624 77.85789063 24.01173248 77.26953125 24.01777649 C71.29899792 24.08195943 65.32899125 24.166442 59.35888672 24.26245117 C57.13402268 24.29560258 54.90907652 24.32366466 52.68408203 24.34643555 C49.4765337 24.38016145 46.26973134 24.43248712 43.0625 24.48828125 C42.07572266 24.49467117 41.08894531 24.5010611 40.07226562 24.50764465 C32.49461932 24.66714885 26.70430489 26.36850152 20 30 C20 29.34 20 28.68 20 28 C19.27683594 28.09925781 18.55367188 28.19851562 17.80859375 28.30078125 C13.85645346 27.87753396 12.6942362 26.09363523 10.0625 23.1875 C5.92049105 18.63851077 2.29892623 15.39679554 -3.99935913 14.63923645 C-5.05192902 14.64589828 -6.1044989 14.65256012 -7.18896484 14.65942383 C-8.99015274 14.65976372 -8.99015274 14.65976372 -10.82772827 14.66011047 C-12.74991684 14.68333626 -12.74991684 14.68333626 -14.7109375 14.70703125 C-16.04757204 14.71263315 -17.38421278 14.71690044 -18.72085571 14.71989441 C-22.22264904 14.73129666 -25.72406342 14.76072303 -29.22570801 14.79400635 C-32.80536779 14.82480765 -36.38508937 14.83842113 -39.96484375 14.85351562 C-46.97671722 14.88559796 -53.98834037 14.93673755 -61 15 C-58.17786298 11.90908803 -56.15432263 11.07659056 -51.90551758 10.79467773 C-50.66439209 10.75802002 -49.4232666 10.7213623 -48.14453125 10.68359375 C-47.15207649 10.6524221 -47.15207649 10.6524221 -46.13957214 10.62062073 C-44.03065148 10.55535273 -41.92160865 10.49634656 -39.8125 10.4375 C-38.38084685 10.39429311 -36.94920596 10.35067812 -35.51757812 10.30664062 C-32.01184846 10.19969494 -28.50598214 10.09836359 -25 10 C-25.92337158 9.97494385 -26.84674316 9.9498877 -27.7980957 9.92407227 C-31.22546416 9.82890955 -34.65266461 9.72967786 -38.07983398 9.62768555 C-39.56286015 9.5843867 -41.04593454 9.54270801 -42.52905273 9.50268555 C-44.66144339 9.44486042 -46.79359242 9.38120168 -48.92578125 9.31640625 C-50.20880127 9.27974854 -51.49182129 9.24309082 -52.8137207 9.20532227 C-56 9 -56 9 -59 8 C-59 7.34 -59 6.68 -59 6 C-59.66 6 -60.32 6 -61 6 C-61 4 -61 4 -59 2 C-59.99 1.67 -60.98 1.34 -62 1 C-59.31143121 -2.4567313 -55.64195174 -3.36873324 -51.625 -4.625 C-50.965 -4.8415625 -50.305 -5.058125 -49.625 -5.28125 C-32.66100785 -10.75568571 -15.72520988 -7.86260494 0 0 Z M-58 -1 C-57 1 -57 1 -57 1 Z " fill="#5131DC" transform="translate(147,57)"/>
<path d="M0 0 C1.4282618 0.00031703 2.85654759 0.01163717 4.28466797 0.03173828 C5.41242142 0.03598312 5.41242142 0.03598312 6.56295776 0.04031372 C8.96775125 0.05152204 11.37217428 0.07662726 13.77685547 0.10205078 C15.40575635 0.11207976 17.03466305 0.12120576 18.66357422 0.12939453 C22.65981103 0.15146343 26.65577041 0.18599728 30.65185547 0.22705078 C30.65185547 0.88705078 30.65185547 1.54705078 30.65185547 2.22705078 C31.64185547 2.22705078 32.63185547 2.22705078 33.65185547 2.22705078 C33.32185547 4.20705078 32.99185547 6.18705078 32.65185547 8.22705078 C31.99185547 8.22705078 31.33185547 8.22705078 30.65185547 8.22705078 C30.65185547 8.88705078 30.65185547 9.54705078 30.65185547 10.22705078 C31.31185547 10.55705078 31.97185547 10.88705078 32.65185547 11.22705078 C32.32185547 12.21705078 31.99185547 13.20705078 31.65185547 14.22705078 C32.31185547 14.88705078 32.97185547 15.54705078 33.65185547 16.22705078 C33.86058266 19.01007997 33.90826444 20.71423283 32.65185547 23.22705078 C33.05124314 25.32526293 33.05124314 25.32526293 33.65185547 27.22705078 C33.14734863 26.90414062 32.6428418 26.58123047 32.12304688 26.24853516 C28.80227972 24.87587266 25.64978091 24.91016022 22.11279297 24.88330078 C21.39072662 24.86867798 20.66866028 24.85405518 19.92471313 24.83898926 C16.84402778 24.77684659 13.76314794 24.73701726 10.68212891 24.6953125 C8.42963428 24.66164363 6.17756964 24.61653357 3.92529297 24.57080078 C2.87684708 24.56288513 2.87684708 24.56288513 1.80722046 24.55480957 C-3.12249565 24.45269966 -3.12249565 24.45269966 -5.34814453 22.22705078 C-5.72314453 19.85205078 -5.72314453 19.85205078 -5.34814453 17.22705078 C-3.34814453 15.03955078 -3.34814453 15.03955078 -1.34814453 13.22705078 C-1.34814453 12.56705078 -1.34814453 11.90705078 -1.34814453 11.22705078 C-2.00814453 10.62892578 -2.66814453 10.03080078 -3.34814453 9.41455078 C-5.34814453 7.22705078 -5.34814453 7.22705078 -5.72314453 4.60205078 C-5.09970213 0.65358224 -3.89342748 0.26402855 0 0 Z " fill="#E2E5FD" transform="translate(190.34814453125,141.77294921875)"/>
<path d="M0 0 C0.33 0 0.66 0 1 0 C1.73415666 3.31868212 2.14398958 6.4405227 2.22119141 9.83666992 C2.2558828 11.24299683 2.2558828 11.24299683 2.29127502 12.67773438 C2.31116989 13.68513672 2.33106476 14.69253906 2.3515625 15.73046875 C2.37512314 16.78661377 2.39868378 17.84275879 2.42295837 18.9309082 C2.49629789 22.34967967 2.56144844 25.76853343 2.625 29.1875 C2.64779022 30.34061676 2.67058044 31.49373352 2.69406128 32.68179321 C3.0121395 49.16411982 3.07299295 65.54193895 2 82 C3.485 82.495 3.485 82.495 5 83 C5.33 83.99 5.66 84.98 6 86 C6.69867188 85.71125 7.39734375 85.4225 8.1171875 85.125 C9.02726562 84.75375 9.93734375 84.3825 10.875 84 C11.77992188 83.62875 12.68484375 83.2575 13.6171875 82.875 C16 82 16 82 18 82 C18.33 79.69 18.66 77.38 19 75 C21.97 75.495 21.97 75.495 25 76 C25.185625 74.9171875 25.185625 74.9171875 25.375 73.8125 C25.9904931 71.04278106 26.88444374 68.6029646 28 66 C29.65 66 31.3 66 33 66 C33.13277344 65.09636719 33.26554687 64.19273437 33.40234375 63.26171875 C33.57894531 62.08222656 33.75554687 60.90273437 33.9375 59.6875 C34.11152344 58.51574219 34.28554688 57.34398437 34.46484375 56.13671875 C35 53 35 53 36 50 C36.99 50.66 37.98 51.32 39 52 C39 51.34 39 50.68 39 50 C39.99 50 40.98 50 42 50 C41.979375 48.72125 41.95875 47.4425 41.9375 46.125 C41.875 42.25 41.875 42.25 43 40 C43.09649939 38.0018949 43.12980872 36.0004282 43.125 34 C43.12757813 32.9275 43.13015625 31.855 43.1328125 30.75 C43.1872341 28.03817948 43.1872341 28.03817948 42 26 C41.92934383 23.95944995 41.91578024 21.91665743 41.9375 19.875 C41.94652344 18.77929688 41.95554687 17.68359375 41.96484375 16.5546875 C41.97644531 15.71164063 41.98804688 14.86859375 42 14 C48.40989668 26.38887594 47.09720206 40.70350531 43.1875 53.66796875 C38.36015986 67.21310408 28.96695813 77.28470234 17 85 C16.09314453 85.61294922 16.09314453 85.61294922 15.16796875 86.23828125 C6.08560071 91.96171999 -3.44773093 93.67354909 -14 93 C-11 91 -11 91 -8.0625 89.375 C-3.1668198 85.57835005 -1.28049227 81.14088541 -0.48101807 75.03881836 C-0.45220497 73.639428 -0.44418425 72.23949558 -0.45410156 70.83984375 C-0.44376389 70.06814346 -0.43342621 69.29644318 -0.42277527 68.50135803 C-0.39354867 65.97985392 -0.39185244 63.45915951 -0.390625 60.9375 C-0.37562966 59.17771899 -0.35889968 57.41795199 -0.34051514 55.65820312 C-0.29698115 51.04855675 -0.27687361 46.43910019 -0.26177979 41.82928467 C-0.2421582 37.11654502 -0.20019396 32.40400885 -0.16015625 27.69140625 C-0.08500544 18.46100048 -0.03462255 9.23064059 0 0 Z " fill="#8233D1" transform="translate(239,95)"/>
<path d="M0 0 C2.125 0.375 2.125 0.375 4 1 C3.51176758 1.83337891 3.02353516 2.66675781 2.52050781 3.52539062 C0.77661467 7.51047206 0.64101828 10.25891292 0.671875 14.59375 C0.67374817 15.30349976 0.67562134 16.01324951 0.67755127 16.74450684 C0.68423922 18.23710874 0.69808845 19.72969409 0.71875 21.22216797 C0.74990852 23.49333212 0.7597292 25.76379939 0.765625 28.03515625 C0.80389861 34.11514476 0.84369402 40.00760068 2 46 C2.66 44.02 3.32 42.04 4 40 C6.66666667 40 9.33333333 40 12 40 C12.33 39.01 12.66 38.02 13 37 C14.9375 35.875 14.9375 35.875 17 35 C17.99 34.505 17.99 34.505 19 34 C21.99039752 33.86674777 24.96124502 33.78989924 27.953125 33.75390625 C29.78776498 33.72095639 31.62240028 33.68774494 33.45703125 33.65429688 C36.35136565 33.60696536 39.24568262 33.56255872 42.14013672 33.52319336 C44.93217208 33.48333442 47.72381056 33.43181121 50.515625 33.37890625 C51.37520813 33.3704921 52.23479126 33.36207794 53.12042236 33.35340881 C57.73490035 33.25906043 61.74600779 33.00462444 66 31 C66.495 29.515 66.495 29.515 67 28 C68.65 27.67 70.3 27.34 72 27 C72.495 25.515 72.495 25.515 73 24 C73.66 24 74.32 24 75 24 C74.896875 23.2575 74.79375 22.515 74.6875 21.75 C75 19 75 19 77.375 16.8125 C78.24125 16.214375 79.1075 15.61625 80 15 C80.66 14.34 81.32 13.68 82 13 C85.125 12.875 85.125 12.875 88 13 C85.9416342 17.53408471 82.85592662 20.51177584 79.375 24 C78.78332031 24.61617187 78.19164062 25.23234375 77.58203125 25.8671875 C70.24060383 33.25618356 63.08794241 36.12090701 52.7109375 36.17578125 C51.02993561 36.19899539 49.34894601 36.22311336 47.66796875 36.24804688 C45.02840133 36.28301613 42.38928155 36.31242696 39.74951172 36.32592773 C26.25696474 36.06924442 26.25696474 36.06924442 14 41 C13.07832031 41.57234375 12.15664062 42.1446875 11.20703125 42.734375 C8.15850448 45.86383611 6.51854867 49.31689357 4.6875 53.25 C4.14899414 54.36761719 4.14899414 54.36761719 3.59960938 55.5078125 C2.72199241 57.33325578 1.85945177 59.1659342 1 61 C0.34 61 -0.32 61 -1 61 C-0.99129883 59.83380127 -0.99129883 59.83380127 -0.98242188 58.64404297 C-0.948266 50.45761097 -1.16616004 42.30379649 -1.5 34.125 C-1.87411936 24.40752236 -2.13200036 14.72402686 -2 5 C-2 4.01 -2 3.02 -2 2 C-1.34 1.34 -0.68 0.68 0 0 Z " fill="#1A2A9B" transform="translate(79,73)"/>
<path d="M0 0 C1.78245311 3.23799343 2.72327368 6.43977975 3.6875 10 C6.42448695 19.05860979 10.21874677 27.32755983 18 33 C16.48062355 37.79015237 14.66846414 42.38786467 12.6875 47 C12.40455078 47.68578125 12.12160156 48.3715625 11.83007812 49.078125 C9.45886929 54.58816238 6.77465022 59.64350433 1.1875 62.375 C0.465625 62.58125 -0.25625 62.7875 -1 63 C-1 63.66 -1 64.32 -1 65 C-13.91790799 62.74449226 -24.15131457 55.56614641 -33 46 C-33.52722656 45.43152344 -34.05445313 44.86304688 -34.59765625 44.27734375 C-39.24613651 39.10137637 -39.24613651 39.10137637 -40 35 C-39.01 35.33 -38.02 35.66 -37 36 C-37 36.99 -37 37.98 -37 39 C-33.7 39.33 -30.4 39.66 -27 40 C-26.67 40.99 -26.34 41.98 -26 43 C-26.495 43.495 -26.495 43.495 -27 44 C-26.59070014 46.05396726 -26.59070014 46.05396726 -26 48 C-25.01 48 -24.02 48 -23 48 C-22.67 48.66 -22.34 49.32 -22 50 C-20.68 50 -19.36 50 -18 50 C-18.33 51.32 -18.66 52.64 -19 54 C-17.68 54 -16.36 54 -15 54 C-15 54.66 -15 55.32 -15 56 C-12.22222764 57.724342 -12.22222764 57.724342 -9.0625 57.625 C-8.381875 57.41875 -7.70125 57.2125 -7 57 C-3.50288869 56.82066096 -0.4092392 57.22074533 3 58 C3.33 57.01 3.66 56.02 4 55 C4.66 55 5.32 55 6 55 C6 52.36 6 49.72 6 47 C6.33 47.66 6.66 48.32 7 49 C11.14277059 44.16676765 13.36937261 40.46402065 13 34 C12.21625 33.731875 11.4325 33.46375 10.625 33.1875 C8 32 8 32 6 29 C6.375 25.8125 6.375 25.8125 7 23 C6.34 23 5.68 23 5 23 C4.566875 21.6078125 4.566875 21.6078125 4.125 20.1875 C3.1125 16.90208333 3.1125 16.90208333 1 14 C-0.09479394 9.29238604 -0.08280089 4.80245159 0 0 Z " fill="#21309B" transform="translate(53,121)"/>
<path d="M0 0 C1.09127197 0.00016113 2.18254395 0.00032227 3.30688477 0.00048828 C25.94154512 0.31654512 25.94154512 0.31654512 32 6.375 C31.36835938 6.3028125 30.73671875 6.230625 30.0859375 6.15625 C16.88575249 4.78677836 5.63222774 4.9056123 -7 9.375 C-7.82242188 9.66375 -8.64484375 9.9525 -9.4921875 10.25 C-22.11548931 15.28135161 -32.316823 24.62866639 -38.73828125 36.43359375 C-39.15464844 37.07425781 -39.57101563 37.71492188 -40 38.375 C-40.66 38.375 -41.32 38.375 -42 38.375 C-41.96570718 30.5047967 -41.96570718 30.5047967 -39.59765625 27.734375 C-38.10188172 26.56591113 -36.5534008 25.46568567 -35 24.375 C-35 23.715 -35 23.055 -35 22.375 C-34.01 22.375 -33.02 22.375 -32 22.375 C-32 21.715 -32 21.055 -32 20.375 C-30.68 20.045 -29.36 19.715 -28 19.375 C-27.67 17.065 -27.34 14.755 -27 12.375 C-24.36 12.705 -21.72 13.035 -19 13.375 C-19 11.065 -19 8.755 -19 6.375 C-20.65 6.375 -22.3 6.375 -24 6.375 C-24.33 5.715 -24.66 5.055 -25 4.375 C-23.68 4.375 -22.36 4.375 -21 4.375 C-21 3.715 -21 3.055 -21 2.375 C-13.91154401 0.52904792 -7.31405051 -0.01010771 0 0 Z " fill="#CE90FC" transform="translate(101,44.625)"/>
<path d="M0 0 C1.4282618 0.00031703 2.85654759 0.01163717 4.28466797 0.03173828 C5.41242142 0.03598312 5.41242142 0.03598312 6.56295776 0.04031372 C8.96775125 0.05152204 11.37217428 0.07662726 13.77685547 0.10205078 C15.40575635 0.11207976 17.03466305 0.12120576 18.66357422 0.12939453 C22.65981103 0.15146343 26.65577041 0.18599728 30.65185547 0.22705078 C31.97167131 5.62629742 31.97167131 5.62629742 30.66577148 8.0793457 C27.59313341 9.830403 24.94320955 9.59831499 21.42919922 9.59033203 C20.72791397 9.59083054 20.02662872 9.59132904 19.30409241 9.59184265 C17.82387453 9.58950498 16.34365246 9.57979441 14.86352539 9.56323242 C12.59404112 9.53959957 10.32572871 9.54267806 8.05615234 9.54931641 C-3.0690102 9.50618512 -3.0690102 9.50618512 -5.34814453 7.22705078 C-5.59814453 4.72705078 -5.59814453 4.72705078 -5.34814453 2.22705078 C-3.34814453 0.22705078 -3.34814453 0.22705078 0 0 Z " fill="#4161CC" transform="translate(190.34814453125,141.77294921875)"/>
<path d="M0 0 C1.05049278 -0.00287018 1.05049278 -0.00287018 2.12220764 -0.00579834 C3.60418049 -0.00715993 5.08616527 -0.0034653 6.56811523 0.00488281 C8.8353971 0.01556723 11.10188374 0.00499547 13.36914062 -0.0078125 C14.8085955 -0.00649059 16.24804988 -0.00392753 17.6875 0 C18.99968506 0.00225586 20.31187012 0.00451172 21.66381836 0.00683594 C24.91015625 0.265625 24.91015625 0.265625 27.91015625 2.265625 C27.03515625 7.140625 27.03515625 7.140625 25.91015625 8.265625 C23.38921549 8.35410243 20.89584732 8.38089801 18.375 8.36328125 C17.24512413 8.36115883 17.24512413 8.36115883 16.09242249 8.35899353 C13.67746065 8.35337876 11.26259024 8.34082383 8.84765625 8.328125 C7.21419404 8.3231119 5.58073039 8.31854866 3.94726562 8.31445312 C-0.0651396 8.30340454 -4.07747616 8.28613006 -8.08984375 8.265625 C-8.71484375 5.390625 -8.71484375 5.390625 -9.08984375 2.265625 C-6.19102497 -0.63319378 -4.05022919 0.00696899 0 0 Z " fill="#366ED4" transform="translate(194.08984375,126.734375)"/>
<path d="M0 0 C1.12276085 -0.0049926 1.12276085 -0.0049926 2.26820374 -0.01008606 C3.85449609 -0.01515818 5.44079915 -0.0174943 7.02709961 -0.01733398 C9.45899994 -0.01951898 11.89044574 -0.03766706 14.32226562 -0.05664062 C15.86067553 -0.05957474 17.39908759 -0.06155942 18.9375 -0.0625 C20.03287331 -0.07327827 20.03287331 -0.07327827 21.15037537 -0.08427429 C26.30633318 -0.06085432 26.30633318 -0.06085432 28.53515625 2.16796875 C28.16833967 5.10250136 27.67078379 6.03234121 25.53515625 8.16796875 C22.40234375 8.42675781 22.40234375 8.42675781 18.41015625 8.43359375 C17.70745605 8.4355072 17.00475586 8.43742065 16.28076172 8.43939209 C14.79459271 8.4407535 13.3084118 8.43706007 11.82226562 8.42871094 C9.54399979 8.41801029 7.26652248 8.42860714 4.98828125 8.44140625 C3.54557117 8.44008465 2.10286159 8.43752224 0.66015625 8.43359375 C-0.65726563 8.43133789 -1.9746875 8.42908203 -3.33203125 8.42675781 C-6.46484375 8.16796875 -6.46484375 8.16796875 -8.46484375 6.16796875 C-8.65234375 3.60546875 -8.65234375 3.60546875 -8.46484375 1.16796875 C-6.49742747 -0.79944753 -2.68916644 0.00408668 0 0 Z " fill="#442BD1" transform="translate(193.46484375,157.83203125)"/>
<path d="M0 0 C0.33 0.66 0.66 1.32 1 2 C-0.98 4.97 -0.98 4.97 -3 8 C-2.01 8.33 -1.02 8.66 0 9 C0 9.33 0 9.66 0 10 C0.80268342 9.99907821 1.60536684 9.99815641 2.432374 9.99720669 C21.97094323 9.97511433 41.50950997 9.95857032 61.04808903 9.94818783 C70.49682629 9.94303338 79.9455552 9.93600687 89.39428711 9.92456055 C97.63059366 9.91458773 105.86689416 9.90814038 114.10320657 9.90591151 C118.4635219 9.90460882 122.82381994 9.90155089 127.18412971 9.89426994 C131.29049943 9.88746877 135.39684479 9.88539138 139.5032196 9.88689232 C141.00802175 9.88661783 142.51282473 9.88463706 144.01762199 9.88079453 C146.07774134 9.87579321 148.13776962 9.87702531 150.19789124 9.87974548 C151.34921067 9.87882369 152.50053011 9.8779019 153.68673801 9.87695217 C157.1828489 10.00679064 160.54756176 10.44704267 164 11 C164 11.33 164 11.66 164 12 C141.88656717 12.02333951 119.77313636 12.04098436 97.65969372 12.05181217 C87.39250973 12.05697288 77.12533338 12.06401133 66.8581543 12.07543945 C57.9113921 12.08539313 48.96463544 12.09185506 40.01786786 12.09408849 C35.27873729 12.09539443 30.53962256 12.09847296 25.80049706 12.10573006 C21.34284826 12.11250103 16.88522188 12.11461475 12.42756844 12.11310768 C10.78885654 12.11338352 9.15014392 12.11538227 7.51143646 12.11920547 C5.27913681 12.1241595 3.04692248 12.12299192 0.81462097 12.12025452 C-0.43625211 12.12117631 -1.68712519 12.1220981 -2.97590351 12.12304783 C-6 12 -6 12 -9 11 C-9 10.01 -9 9.02 -9 8 C-7.02053408 6.63636792 -5.0180755 5.30581356 -3 4 C-1.16699091 1.89424357 -1.16699091 1.89424357 0 0 Z " fill="#BCBEDC" transform="translate(61,176)"/>
<path d="M0 0 C-0.33 0.99 -0.66 1.98 -1 3 C-1.66 3 -2.32 3 -3 3 C-3 3.66 -3 4.32 -3 5 C0.62250967 6.63805746 3.55970949 7.28064621 7.5246582 7.41064453 C8.60540115 7.45053497 9.6861441 7.49042542 10.79963684 7.53152466 C11.9550145 7.56494965 13.11039215 7.59837463 14.30078125 7.6328125 C15.49229294 7.67437469 16.68380463 7.71593689 17.91142273 7.75875854 C21.71155084 7.88935763 25.51195154 8.00733596 29.3125 8.125 C31.89130405 8.21140782 34.47008069 8.2986376 37.04882812 8.38671875 C43.36559863 8.60067961 49.68263931 8.80428406 56 9 C56 9.33 56 9.66 56 10 C55.35599747 10.00364563 54.71199493 10.00729126 54.04847717 10.01104736 C47.31540482 10.05301945 40.58300481 10.12246798 33.8503418 10.20751953 C31.34129578 10.23565837 28.83216229 10.25690795 26.32299805 10.27099609 C22.70576419 10.29252298 19.08957432 10.3392264 15.47265625 10.390625 C14.35979752 10.39185364 13.24693878 10.39308228 12.10035706 10.39434814 C5.06830571 10.52510991 0.23485746 11.7121652 -6 15 C-5.67 11.7 -5.34 8.4 -5 5 C-5.66 5 -6.32 5 -7 5 C-7 5.66 -7 6.32 -7 7 C-7.60328125 7.27972656 -8.2065625 7.55945313 -8.828125 7.84765625 C-13.66935886 10.27608162 -16.56610309 12.0373863 -18.9765625 17.1015625 C-21.82455927 22.38448782 -26.70171414 26.87364558 -31 31 C-27.41981064 19.18710469 -14.37836433 -1.75345906 0 0 Z " fill="#4F29B9" transform="translate(89,58)"/>
<path d="M0 0 C0.33 0.66 0.66 1.32 1 2 C-8.09859155 11.36619718 -8.09859155 11.36619718 -13 13 C-14.36937792 15.8440926 -13.97019777 17.09482529 -13.01171875 20.14453125 C-12.51091797 21.55798828 -12.51091797 21.55798828 -12 23 C-9.08327116 23.02700675 -6.16679323 23.04684237 -3.25 23.0625 C-2.425 23.07087891 -1.6 23.07925781 -0.75 23.08789062 C0.44882813 23.09272461 0.44882813 23.09272461 1.671875 23.09765625 C2.77160645 23.10551147 2.77160645 23.10551147 3.89355469 23.11352539 C7.48252517 22.92010035 9.41774944 22.58225056 12 20 C13.98 20.99 15.96 21.98 18 23 C17.505 24.485 17.505 24.485 17 26 C17.99 26.268125 18.98 26.53625 20 26.8125 C24.11369919 28.00463324 28.06163595 29.30242929 32 31 C32.495 32.485 32.495 32.485 33 34 C32.45907715 33.8146167 31.9181543 33.6292334 31.36083984 33.43823242 C12.66019603 27.10634455 -4.227 25.26866678 -24 26 C-21.85382698 21.43009534 -19.78265783 17.28295054 -16.375 13.5 C-15.78460938 12.8296875 -15.19421875 12.159375 -14.5859375 11.46875 C-13 10 -13 10 -11 10 C-10.67 9.01 -10.34 8.02 -10 7 C-7.71484375 5.17578125 -7.71484375 5.17578125 -4.9375 3.3125 C-4.01839844 2.68988281 -3.09929687 2.06726563 -2.15234375 1.42578125 C-1.44207031 0.95527344 -0.73179688 0.48476563 0 0 Z " fill="#4E65EC" transform="translate(111,20)"/>
<path d="M0 0 C0.33 0 0.66 0 1 0 C1.73415666 3.31868212 2.14398958 6.4405227 2.22119141 9.83666992 C2.2558828 11.24299683 2.2558828 11.24299683 2.29127502 12.67773438 C2.31116989 13.68513672 2.33106476 14.69253906 2.3515625 15.73046875 C2.37512314 16.78661377 2.39868378 17.84275879 2.42295837 18.9309082 C2.49629789 22.34967967 2.56144844 25.76853343 2.625 29.1875 C2.64779022 30.34061676 2.67058044 31.49373352 2.69406128 32.68179321 C3.0121395 49.16411982 3.07299295 65.54193895 2 82 C3.485 82.495 3.485 82.495 5 83 C2.26414562 89.3043601 2.26414562 89.3043601 -1.05859375 91.1328125 C-5.41683006 92.64680353 -9.35701472 93.35715271 -14 93 C-11 91 -11 91 -8.0625 89.375 C-3.1668198 85.57835005 -1.28049227 81.14088541 -0.48101807 75.03881836 C-0.45220497 73.639428 -0.44418425 72.23949558 -0.45410156 70.83984375 C-0.44376389 70.06814346 -0.43342621 69.29644318 -0.42277527 68.50135803 C-0.39354867 65.97985392 -0.39185244 63.45915951 -0.390625 60.9375 C-0.37562966 59.17771899 -0.35889968 57.41795199 -0.34051514 55.65820312 C-0.29698115 51.04855675 -0.27687361 46.43910019 -0.26177979 41.82928467 C-0.2421582 37.11654502 -0.20019396 32.40400885 -0.16015625 27.69140625 C-0.08500544 18.46100048 -0.03462255 9.23064059 0 0 Z " fill="#4D37BF" transform="translate(239,95)"/>
<path d="M0 0 C1.00857559 -0.01606293 2.01715118 -0.03212585 3.05628967 -0.04867554 C7.68367751 -0.09332928 12.31092319 -0.13422092 16.93847656 -0.15722656 C19.37184237 -0.17374372 21.80516051 -0.20097702 24.23828125 -0.23925781 C27.7586366 -0.29432696 31.27785451 -0.31595101 34.79858398 -0.33056641 C35.87499649 -0.35323578 36.951409 -0.37590515 38.06044006 -0.39926147 C46.67052258 -0.37545196 53.8076503 1.87770635 60.16967773 7.88037109 C62.04467773 10.19287109 62.04467773 10.19287109 62.04467773 12.19287109 C58.59764339 10.66085583 55.97881003 8.54017693 53.04467773 6.19287109 C49.67009993 4.09125152 47.02659157 3.94924961 43.08276367 3.96582031 C41.88182068 3.96597137 40.68087769 3.96612244 39.44354248 3.96627808 C37.50587006 3.98176193 37.50587006 3.98176193 35.52905273 3.99755859 C34.189557 4.00129076 32.85005853 4.00413677 31.51055908 4.00613403 C27.99239508 4.01375453 24.47439734 4.03338923 20.95629883 4.05554199 C17.36338551 4.07603466 13.77044521 4.08514305 10.17749023 4.09521484 C3.13315156 4.11663675 -3.91107447 4.15075345 -10.95532227 4.19287109 C-7.63091658 0.55185535 -4.81244753 0.06977848 0 0 Z " fill="#89BBF7" transform="translate(96.955322265625,67.80712890625)"/>
<path d="M0 0 C0 0.66 0 1.32 0 2 C0.99 1.67 1.98 1.34 3 1 C3.99 3.31 4.98 5.62 6 8 C6.99 7.67 7.98 7.34 9 7 C10.67220971 6.91245202 12.34772199 6.88234005 14.0222168 6.88647461 C15.04304855 6.88655014 16.06388031 6.88662567 17.11564636 6.88670349 C18.21572525 6.89186478 19.31580414 6.89702606 20.44921875 6.90234375 C21.5769722 6.9037587 22.70472565 6.90517365 23.86665344 6.90663147 C27.47362912 6.9122353 31.08054304 6.92478847 34.6875 6.9375 C37.13085848 6.94251451 39.57421793 6.9470775 42.01757812 6.95117188 C48.01173987 6.96220597 54.00586552 6.97894785 60 7 C60 7.33 60 7.66 60 8 C59.14341797 8.00879936 59.14341797 8.00879936 58.26953125 8.01777649 C52.29899792 8.08195943 46.32899125 8.166442 40.35888672 8.26245117 C38.13402268 8.29560258 35.90907652 8.32366466 33.68408203 8.34643555 C30.4765337 8.38016145 27.26973134 8.43248712 24.0625 8.48828125 C23.07572266 8.49467117 22.08894531 8.5010611 21.07226562 8.50764465 C13.49461932 8.66714885 7.70430489 10.36850152 1 14 C1 13.34 1 12.68 1 12 C0.2575 12.103125 -0.485 12.20625 -1.25 12.3125 C-4 12 -4 12 -6.1875 9.875 C-8.0257469 6.9591601 -9.07633452 4.30980131 -10 1 C-8.68 1.33 -7.36 1.66 -6 2 C-6 1.34 -6 0.68 -6 0 C-3.50907189 -1.24546405 -2.58919267 -0.7767578 0 0 Z " fill="#3C49D2" transform="translate(166,73)"/>
<path d="M0 0 C1.72766602 0.01353516 1.72766602 0.01353516 3.49023438 0.02734375 C6.30621193 0.05071286 9.12174158 0.08347435 11.9375 0.125 C11.9375 0.785 11.9375 1.445 11.9375 2.125 C13.2575 2.455 14.5775 2.785 15.9375 3.125 C14.8753125 3.17398438 13.813125 3.22296875 12.71875 3.2734375 C4.35479483 3.7004826 -3.06460489 4.45903496 -11.0625 7.125 C-11.3925 7.785 -11.7225 8.445 -12.0625 9.125 C-14.71110427 9.71855614 -17.35447322 9.86709269 -20.0625 10.125 C-20.0625 8.805 -20.0625 7.485 -20.0625 6.125 C-21.7125 6.125 -23.3625 6.125 -25.0625 6.125 C-25.3925 5.465 -25.7225 4.805 -26.0625 4.125 C-24.7425 4.125 -23.4225 4.125 -22.0625 4.125 C-22.0625 3.465 -22.0625 2.805 -22.0625 2.125 C-14.60144572 0.11534169 -7.70216899 -0.11555476 0 0 Z " fill="#DA97FD" transform="translate(102.0625,44.875)"/>
<path d="M0 0 C0.99 0.33 1.98 0.66 3 1 C3 1.66 3 2.32 3 3 C3.88751953 3.00386719 3.88751953 3.00386719 4.79296875 3.0078125 C11.20328355 3.32153101 11.20328355 3.32153101 13.60546875 5.3671875 C14.78057212 6.87855122 15.89341932 8.43776845 17 10 C17.99 10.33 18.98 10.66 20 11 C20.33 11.99 20.66 12.98 21 14 C21.66 14.33 22.32 14.66 23 15 C22.67 16.32 22.34 17.64 22 19 C22 18.34 22 17.68 22 17 C18.06924356 17.57452746 18.06924356 17.57452746 15 20 C9.8817659 17.86740246 4.9422919 15.51449939 0 13 C0 12.67 0 12.34 0 12 C2.64 12 5.28 12 8 12 C8.33 9.69 8.66 7.38 9 5 C6.69 5 4.38 5 2 5 C1.34 3.35 0.68 1.7 0 0 Z " fill="#4E3BE6" transform="translate(144,56)"/>
<path d="M0 0 C7.18828141 2.28718045 14.66215374 9.46543001 18.6640625 15.84765625 C19.5390625 19.28515625 19.5390625 19.28515625 19.6640625 21.84765625 C17.17313439 23.0931203 16.25325517 22.62441405 13.6640625 21.84765625 C13.6640625 19.53765625 13.6640625 17.22765625 13.6640625 14.84765625 C12.6740625 14.84765625 11.6840625 14.84765625 10.6640625 14.84765625 C10.3340625 14.18765625 10.0040625 13.52765625 9.6640625 12.84765625 C9.0040625 12.84765625 8.3440625 12.84765625 7.6640625 12.84765625 C7.6640625 13.50765625 7.6640625 14.16765625 7.6640625 14.84765625 C6.3440625 14.18765625 5.0240625 13.52765625 3.6640625 12.84765625 C3.6640625 11.19765625 3.6640625 9.54765625 3.6640625 7.84765625 C3.0040625 7.84765625 2.3440625 7.84765625 1.6640625 7.84765625 C1.6640625 7.18765625 1.6640625 6.52765625 1.6640625 5.84765625 C-0.3159375 6.17765625 -2.2959375 6.50765625 -4.3359375 6.84765625 C-4.3359375 6.18765625 -4.3359375 5.52765625 -4.3359375 4.84765625 C-4.9959375 4.51765625 -5.6559375 4.18765625 -6.3359375 3.84765625 C-3.02636902 -0.19737189 -3.02636902 -0.19737189 0 0 Z " fill="#59B3D7" transform="translate(208.3359375,18.15234375)"/>
<path d="M0 0 C-1 3 -1 3 -3.125 4.6875 C-6.61838862 6.28230785 -9.19056909 6.06802555 -13 6 C-15.83378132 6.8974827 -15.83378132 6.8974827 -18 8 C-17.67 9.65 -17.34 11.3 -17 13 C-18.65 13.66 -20.3 14.32 -22 15 C-22.33 14.34 -22.66 13.68 -23 13 C-23.66 13 -24.32 13 -25 13 C-25.66 13.66 -26.32 14.32 -27 15 C-27.99 15 -28.98 15 -30 15 C-28.87359164 10.21276448 -26.1956585 8.1293759 -22.34375 5.421875 C-16.65541107 1.97094938 -6.57854975 -3.28927487 0 0 Z " fill="#B982C0" transform="translate(75,50)"/>
<path d="M0 0 C1.19521774 -0.01591187 2.39043549 -0.03182373 3.62187195 -0.04821777 C4.91559219 -0.04841919 6.20931244 -0.04862061 7.54223633 -0.04882812 C8.88642189 -0.05593237 10.23060442 -0.06363176 11.57478333 -0.07189941 C14.39515597 -0.08535267 17.21524877 -0.08691121 20.03564453 -0.08105469 C23.63260936 -0.0751816 27.22821359 -0.10564334 30.82491589 -0.14617157 C33.60383713 -0.17216356 36.38243676 -0.17491529 39.16146278 -0.17127991 C41.12669424 -0.17377662 43.09185779 -0.19841109 45.05693054 -0.22351074 C52.69848734 -0.16479137 57.13698007 0.65006987 63.18676758 5.41992188 C62.52676758 5.74992187 61.86676758 6.07992187 61.18676758 6.41992188 C61.18676758 7.07992187 61.18676758 7.73992187 61.18676758 8.41992188 C57.707776 7.02832524 56.70624257 5.78740699 55.18676758 2.41992188 C47.40888237 2.36930022 39.63103949 2.33422141 31.85302734 2.31005859 C29.20587578 2.29998782 26.55873537 2.28633051 23.91162109 2.26904297 C20.11138153 2.24484215 16.31128876 2.23344959 12.51098633 2.22460938 C10.72962532 2.20912552 10.72962532 2.20912552 8.91227722 2.19332886 C7.26090508 2.19310226 7.26090508 2.19310226 5.57617188 2.19287109 C4.12056099 2.18620926 4.12056099 2.18620926 2.63554382 2.17941284 C-0.07006194 2.25118098 -0.07006194 2.25118098 -2.81323242 4.41992188 C-3.80323242 4.74992187 -4.79323242 5.07992187 -5.81323242 5.41992188 C-5.81323242 6.73992187 -5.81323242 8.05992188 -5.81323242 9.41992188 C-7.68823242 11.54492188 -7.68823242 11.54492188 -9.81323242 13.41992188 C-10.47323242 14.07992187 -11.13323242 14.73992187 -11.81323242 15.41992188 C-12.210752 9.85464775 -10.9216005 6.21978702 -7.5710907 1.77038574 C-5.04607392 -0.16944295 -3.1611224 0.02527773 0 0 Z " fill="#2A66C6" transform="translate(90.813232421875,70.580078125)"/>
<path d="M0 0 C3.29158865 -0.05905417 6.58303756 -0.09394375 9.875 -0.125 C10.7928125 -0.14175781 11.710625 -0.15851562 12.65625 -0.17578125 C21.1343312 -0.23548605 28.92514064 0.98046885 36.875 4 C37.75929687 4.33 38.64359375 4.66 39.5546875 5 C40.76511719 5.495 40.76511719 5.495 42 6 C42.74507812 6.28875 43.49015625 6.5775 44.2578125 6.875 C46 8 46 8 46.75 10.125 C46.8325 10.74375 46.915 11.3625 47 12 C46.43152344 11.855625 45.86304688 11.71125 45.27734375 11.5625 C40.37737795 10.38454495 36.0354688 9.78572473 31 10 C30.34 8.02 29.68 6.04 29 4 C28.2575 4.020625 27.515 4.04125 26.75 4.0625 C24.24470792 4.00556154 22.39511102 3.6532121 20 3 C15.48458894 2.10088447 11.2252747 1.89410118 6.625 1.9375 C5.37976563 1.94652344 4.13453125 1.95554687 2.8515625 1.96484375 C1.91054687 1.97644531 0.96953125 1.98804688 0 2 C0 1.34 0 0.68 0 0 Z " fill="#63C7EF" transform="translate(156,6)"/>
<path d="M0 0 C2.31 0 4.62 0 7 0 C4.9416342 4.53408471 1.85592662 7.51177584 -1.625 11 C-2.21667969 11.61617187 -2.80835938 12.23234375 -3.41796875 12.8671875 C-8.56032342 18.04286196 -13.84402471 21.38292001 -21 23 C-21 22.01 -21 21.02 -21 20 C-20.030625 19.731875 -19.06125 19.46375 -18.0625 19.1875 C-17.051875 18.795625 -16.04125 18.40375 -15 18 C-14.67 17.01 -14.34 16.02 -14 15 C-12.35 14.67 -10.7 14.34 -9 14 C-8.67 13.01 -8.34 12.02 -8 11 C-7.34 11 -6.68 11 -6 11 C-6.103125 10.2575 -6.20625 9.515 -6.3125 8.75 C-6 6 -6 6 -3.5625 3.8125 C-2.716875 3.214375 -1.87125 2.61625 -1 2 C-0.67 1.34 -0.34 0.68 0 0 Z " fill="#2836A1" transform="translate(160,86)"/>
<path d="M0 0 C4.70588235 0.70588235 4.70588235 0.70588235 6 2 C7.68620973 2.15242313 9.3784963 2.23823073 11.07055664 2.29711914 C12.15160172 2.33708511 13.23264679 2.37705109 14.34645081 2.41822815 C15.5224736 2.45681442 16.6984964 2.4954007 17.91015625 2.53515625 C19.10732773 2.57813339 20.30449921 2.62111053 21.53794861 2.66539001 C25.37932243 2.80225272 29.22089033 2.93244239 33.0625 3.0625 C35.65952065 3.15385899 38.25652614 3.24565007 40.85351562 3.33789062 C47.2355093 3.56361663 53.61767496 3.78385761 60 4 C60 4.33 60 4.66 60 5 C59.35599747 5.00364563 58.71199493 5.00729126 58.04847717 5.01104736 C51.31540482 5.05301945 44.58300481 5.12246798 37.8503418 5.20751953 C35.34129578 5.23565837 32.83216229 5.25690795 30.32299805 5.27099609 C26.70576419 5.29252298 23.08957432 5.3392264 19.47265625 5.390625 C18.35979752 5.39185364 17.24693878 5.39308228 16.10035706 5.39434814 C9.20866583 5.5224999 4.04176837 6.62990694 -2 10 C-1.125 1.125 -1.125 1.125 0 0 Z " fill="#4233BF" transform="translate(85,63)"/>
<path d="M0 0 C0.33 0 0.66 0 1 0 C1.09285808 10.42284578 1.16384514 20.84559244 1.20724869 31.26876831 C1.22808485 36.10917823 1.25632966 40.94930423 1.30175781 45.78955078 C1.34535758 50.46447524 1.36916696 55.13912734 1.37950897 59.8142395 C1.38687504 61.59396652 1.40125922 63.37367936 1.42292023 65.15328979 C1.45214278 67.65459906 1.45594825 70.15479632 1.45410156 72.65625 C1.46848267 73.38489761 1.48286377 74.11354523 1.49768066 74.86427307 C1.44513614 81.48214039 -0.74327949 86.74327949 -5.4375 91.4375 C-8.04051169 93.02470225 -9.98909181 93.65589621 -13 94 C-11.93686226 90.69246035 -10.44717989 89.52444302 -7.5 87.9375 C-6.58734375 87.48697266 -6.58734375 87.48697266 -5.65625 87.02734375 C-3.66952185 85.95352189 -3.66952185 85.95352189 -2 83 C-1.05970954 78.08203174 -0.83659945 73.22173521 -0.79467773 68.22875977 C-0.77982834 67.11531944 -0.77982834 67.11531944 -0.76467896 65.97938538 C-0.73334203 63.55009034 -0.70841776 61.12077581 -0.68359375 58.69140625 C-0.66300014 56.99746725 -0.64200307 55.30353311 -0.62062073 53.60960388 C-0.5656485 49.16932126 -0.51613052 44.72899419 -0.46777344 40.28863525 C-0.41737601 35.75032637 -0.36178553 31.21208137 -0.30664062 26.67382812 C-0.19936338 17.78260677 -0.0978519 8.89132974 0 0 Z " fill="#B8AFFC" transform="translate(238,93)"/>
<path d="M0 0 C0.33 0.66 0.66 1.32 1 2 C-8.09859155 11.36619718 -8.09859155 11.36619718 -13 13 C-14.33852883 15.78002142 -13.95800738 17.1647403 -13.1875 20.1875 C-12.31014093 23.11577832 -12.31014093 23.11577832 -10 24 C-14.62 24.66 -19.24 25.32 -24 26 C-21.24391109 19.82636084 -18.00108022 14.63154227 -13 10 C-12.34 10 -11.68 10 -11 10 C-10.67 9.01 -10.34 8.02 -10 7 C-7.71484375 5.17578125 -7.71484375 5.17578125 -4.9375 3.3125 C-4.01839844 2.68988281 -3.09929687 2.06726563 -2.15234375 1.42578125 C-1.44207031 0.95527344 -0.73179688 0.48476563 0 0 Z " fill="#384CC3" transform="translate(111,20)"/>
<path d="M0 0 C0.66 0 1.32 0 2 0 C-0.84242549 7.57980131 -11.92542289 13.58904318 -19 17 C-25.10089816 19.37579074 -30.38754295 21.27510965 -37 21 C-37 20.67 -37 20.34 -37 20 C-36.40832031 19.84144531 -35.81664062 19.68289062 -35.20703125 19.51953125 C-29.78430074 17.91836612 -26.64049549 16.34510752 -23 12 C-23 12.66 -23 13.32 -23 14 C-22.30132812 13.71125 -21.60265625 13.4225 -20.8828125 13.125 C-19.97273438 12.75375 -19.06265625 12.3825 -18.125 12 C-17.22007812 11.62875 -16.31515625 11.2575 -15.3828125 10.875 C-13 10 -13 10 -11 10 C-10.67 7.69 -10.34 5.38 -10 3 C-7.98177083 3.09765625 -5.96354167 3.1953125 -3.9453125 3.29296875 C-3.30335938 3.19628906 -2.66140625 3.09960938 -2 3 C-1.34 2.01 -0.68 1.02 0 0 Z " fill="#57218A" transform="translate(268,167)"/>
<path d="M0 0 C0.99 0.33 1.98 0.66 3 1 C3 1.99 3 2.98 3 4 C6.3 4.33 9.6 4.66 13 5 C13.33 5.99 13.66 6.98 14 8 C13.67 8.33 13.34 8.66 13 9 C13.40929986 11.05396726 13.40929986 11.05396726 14 13 C14.99 13 15.98 13 17 13 C17.33 13.66 17.66 14.32 18 15 C19.32 15 20.64 15 22 15 C21.67 16.65 21.34 18.3 21 20 C13.5869261 18.25574732 9.54797344 15.00662324 4.75 9 C4.06421875 8.154375 3.3784375 7.30875 2.671875 6.4375 C1.12338994 4.17989562 0.42039379 2.67073702 0 0 Z " fill="#376CCF" transform="translate(13,156)"/>
<path d="M0 0 C3.27081471 -0.02902429 6.5415963 -0.04680684 9.8125 -0.0625 C10.74126953 -0.07087891 11.67003906 -0.07925781 12.62695312 -0.08789062 C13.51962891 -0.09111328 14.41230469 -0.09433594 15.33203125 -0.09765625 C16.56530151 -0.10551147 16.56530151 -0.10551147 17.82348633 -0.11352539 C20 0 20 0 23 1 C23 1.66 23 2.32 23 3 C23.66 3 24.32 3 25 3 C25 3.66 25 4.32 25 5 C27.31 5 29.62 5 32 5 C32 5.33 32 5.66 32 6 C8.31713316 6.26152859 8.31713316 6.26152859 5.51953125 3.58203125 C4.76736328 2.79892578 4.76736328 2.79892578 4 2 C2.67987198 1.30755201 1.34755724 0.63742583 0 0 Z " fill="#3161D6" transform="translate(188,143)"/>
<path d="M0 0 C4.50234373 -0.04944705 9.0045293 -0.08574161 13.50708008 -0.10986328 C15.03868361 -0.11991935 16.57026795 -0.133566 18.10180664 -0.15087891 C20.30359636 -0.17514498 22.50513219 -0.18648688 24.70703125 -0.1953125 C25.39150833 -0.20563507 26.07598541 -0.21595764 26.78120422 -0.22659302 C30.43061661 -0.22745382 31.87148502 -0.08567666 35 2 C34.67 3.65 34.34 5.3 34 7 C32.68 6.67 31.36 6.34 30 6 C30 5.34 30 4.68 30 4 C26.37 4 22.74 4 19 4 C19 3.34 19 2.68 19 2 C18.38253906 2.01160156 17.76507813 2.02320313 17.12890625 2.03515625 C11.32474456 2.09699663 5.75661912 1.74278956 0 1 C0 0.67 0 0.34 0 0 Z " fill="#5892E9" transform="translate(187,127)"/>
<path d="M0 0 C6.52791899 12.61698629 4.86338964 26.69471594 1.16796875 39.890625 C0.09065171 42.75866635 -1.01153971 44.69817204 -3 47 C-2.67 44.36 -2.34 41.72 -2 39 C-1.34 39 -0.68 39 0 39 C-0.01160156 38.22914063 -0.02320313 37.45828125 -0.03515625 36.6640625 C-0.04869141 35.15972656 -0.04869141 35.15972656 -0.0625 33.625 C-0.07410156 32.62726563 -0.08570313 31.62953125 -0.09765625 30.6015625 C0 28 0 28 1 26 C1.09649939 24.0018949 1.12980872 22.0004282 1.125 20 C1.12886719 18.39125 1.12886719 18.39125 1.1328125 16.75 C1.1872341 14.03817948 1.1872341 14.03817948 0 12 C-0.07065617 9.95944995 -0.08421976 7.91665743 -0.0625 5.875 C-0.05347656 4.77929688 -0.04445313 3.68359375 -0.03515625 2.5546875 C-0.02355469 1.71164063 -0.01195312 0.86859375 0 0 Z " fill="#4D34A3" transform="translate(281,109)"/>
<path d="M0 0 C11.22 0 22.44 0 34 0 C34.495 2.97 34.495 2.97 35 6 C31.93109813 7.53445094 29.29905734 6.54984289 26 6 C26 5.34 26 4.68 26 4 C25.34 4 24.68 4 24 4 C24 3.34 24 2.68 24 2 C15.75 2 7.5 2 -1 2 C-0.67 1.34 -0.34 0.68 0 0 Z " fill="#5D87DF" transform="translate(187,142)"/>
<path d="M0 0 C1.80206994 3.27217963 2.76251859 6.53022117 3.75 10.125 C5.3885503 15.64042213 7.62411448 19.96494475 10.73828125 24.765625 C12.50980134 27.9028061 12.84485722 30.43171599 13 34 C9.34683329 32.75023244 8.21934164 32.32901247 6 29 C6.375 25.8125 6.375 25.8125 7 23 C6.34 23 5.68 23 5 23 C4.71125 22.071875 4.4225 21.14375 4.125 20.1875 C3.1125 16.90208333 3.1125 16.90208333 1 14 C-0.09479394 9.29238604 -0.08280089 4.80245159 0 0 Z " fill="#234CC7" transform="translate(53,121)"/>
<path d="M0 0 C6.07857628 0.01896592 12.03084615 0.41368193 18.06640625 1.1328125 C18.06640625 1.7928125 18.06640625 2.4528125 18.06640625 3.1328125 C21.69640625 3.1328125 25.32640625 3.1328125 29.06640625 3.1328125 C29.06640625 3.7928125 29.06640625 4.4528125 29.06640625 5.1328125 C30.05640625 5.4628125 31.04640625 5.7928125 32.06640625 6.1328125 C29.64943753 6.18692374 27.23368838 6.22653528 24.81640625 6.2578125 C24.13449219 6.27457031 23.45257813 6.29132813 22.75 6.30859375 C18.9404663 6.34557951 16.33685738 6.09508318 13.06640625 4.1328125 C11.07530224 3.74990788 9.07540112 3.40676635 7.06640625 3.1328125 C7.06640625 2.4728125 7.06640625 1.8128125 7.06640625 1.1328125 C4.75640625 1.4628125 2.44640625 1.7928125 0.06640625 2.1328125 C0.06640625 3.7828125 0.06640625 5.4328125 0.06640625 7.1328125 C-0.59359375 7.1328125 -1.25359375 7.1328125 -1.93359375 7.1328125 C-2.31492674 5.1414069 -2.64684957 3.14002173 -2.93359375 1.1328125 C-1.93359375 0.1328125 -1.93359375 0.1328125 0 0 Z " fill="#3C7BDF" transform="translate(187.93359375,127.8671875)"/>
<path d="M0 0 C2.95857409 -0.05379226 5.91617721 -0.09357093 8.875 -0.125 C9.71675781 -0.14175781 10.55851562 -0.15851563 11.42578125 -0.17578125 C12.23144531 -0.18222656 13.03710938 -0.18867188 13.8671875 -0.1953125 C14.61081543 -0.20578613 15.35444336 -0.21625977 16.12060547 -0.22705078 C18 0 18 0 20 2 C19.63318342 4.93453261 19.13562754 5.86437246 17 8 C14.56255103 8.17488254 12.2406392 8.23177405 9.8046875 8.1953125 C9.09724396 8.1924826 8.38980042 8.18965271 7.66091919 8.18673706 C5.3987749 8.17553137 3.13702485 8.15042679 0.875 8.125 C-0.65754637 8.11497067 -2.19009894 8.10584474 -3.72265625 8.09765625 C-7.48192301 8.07559086 -11.24089464 8.04105896 -15 8 C-15 7.67 -15 7.34 -15 7 C-14.33991943 6.97494385 -13.67983887 6.9498877 -12.99975586 6.92407227 C-9.97884631 6.80728248 -6.95818578 6.68493554 -3.9375 6.5625 C-2.37999023 6.50352539 -2.37999023 6.50352539 -0.79101562 6.44335938 C4.54030641 6.22333656 9.73689893 5.8883816 15 5 C15 3.68 15 2.36 15 1 C10.05 1 5.1 1 0 1 C0 0.67 0 0.34 0 0 Z " fill="#5F4FD2" transform="translate(202,158)"/>
<path d="M0 0 C1.48831242 0.00667405 2.97660807 0.01863442 4.46484375 0.03515625 C5.22345703 0.03966797 5.98207031 0.04417969 6.76367188 0.04882812 C8.64326246 0.06064945 10.52281274 0.07858547 12.40234375 0.09765625 C9.40234375 2.09765625 9.40234375 2.09765625 7.27734375 2.53515625 C6.65859375 2.72078125 6.03984375 2.90640625 5.40234375 3.09765625 C5.07234375 4.08765625 4.74234375 5.07765625 4.40234375 6.09765625 C7.04234375 6.09765625 9.68234375 6.09765625 12.40234375 6.09765625 C12.40234375 6.42765625 12.40234375 6.75765625 12.40234375 7.09765625 C9.75644361 7.12450304 7.11081279 7.14441982 4.46484375 7.16015625 C3.33272461 7.17272461 3.33272461 7.17272461 2.17773438 7.18554688 C0.25240062 7.19418066 -1.67301206 7.14989958 -3.59765625 7.09765625 C-4.59765625 6.09765625 -4.59765625 6.09765625 -4.72265625 3.59765625 C-4.52490553 -0.35735814 -4.12100293 0.11186219 0 0 Z " fill="#3723B7" transform="translate(189.59765625,157.90234375)"/>
<path d="M0 0 C2.64 0 5.28 0 8 0 C8 0.66 8 1.32 8 2 C10.77777236 3.724342 10.77777236 3.724342 13.9375 3.625 C14.618125 3.41875 15.29875 3.2125 16 3 C18.625 2.75 18.625 2.75 21 3 C21.99 4.485 21.99 4.485 23 6 C18.7528028 8.1235986 13.59787287 7.61754092 9 7 C5.62063594 5.42138798 2.75706748 3.51338727 0 1 C0 0.67 0 0.34 0 0 Z " fill="#233DA1" transform="translate(30,175)"/>
<path d="M0 0 C1.31335223 2.62670447 0.81235218 3.86045664 0.2578125 6.7265625 C0.07863281 7.67660156 -0.10054687 8.62664062 -0.28515625 9.60546875 C-0.47980469 10.60191406 -0.67445312 11.59835938 -0.875 12.625 C-2.1138406 19.07551484 -3.25139788 25.47335235 -4 32 C-4.32173372 34.00189873 -4.65048379 36.00276453 -5 38 C-5.33 38 -5.66 38 -6 38 C-6.27207822 24.12401088 -5.64483412 12.87899048 0 0 Z " fill="#8374B2" transform="translate(11,97)"/>
<path d="M0 0 C0.66 0 1.32 0 2 0 C2 1.98 2 3.96 2 6 C1.01 6 0.02 6 -1 6 C-1.433125 7.6396875 -1.433125 7.6396875 -1.875 9.3125 C-3 13 -3 13 -5 16 C-6.32 15.67 -7.64 15.34 -9 15 C-7.04225352 7.16901408 -7.04225352 7.16901408 -4 4 C-3.34 4 -2.68 4 -2 4 C-1.34 2.68 -0.68 1.36 0 0 Z " fill="#C489DD" transform="translate(28,73)"/>
<path d="M0 0 C0.28056176 2.80561762 0.26710868 4.46578263 -1 7 C-0.60061233 9.09821215 -0.60061233 9.09821215 0 11 C-0.81210938 10.50886719 -0.81210938 10.50886719 -1.640625 10.0078125 C-4.50719067 8.78335233 -6.6452987 8.80107854 -9.75 8.875 C-10.73484375 8.89304688 -11.7196875 8.91109375 -12.734375 8.9296875 C-13.48203125 8.95289063 -14.2296875 8.97609375 -15 9 C-15 8.67 -15 8.34 -15 8 C-14.30132812 7.95101562 -13.60265625 7.90203125 -12.8828125 7.8515625 C-11.97273438 7.77679688 -11.06265625 7.70203125 -10.125 7.625 C-9.22007812 7.55539063 -8.31515625 7.48578125 -7.3828125 7.4140625 C-4.82058097 7.20431868 -4.82058097 7.20431868 -3 5 C-3.495 3.02 -3.495 3.02 -4 1 C-14.89 0.67 -25.78 0.34 -37 0 C-37 -0.33 -37 -0.66 -37 -1 C-32.21321897 -1.19239902 -27.42619673 -1.37109864 -22.63842773 -1.53710938 C-21.00970751 -1.59551552 -19.38111708 -1.65766607 -17.75268555 -1.72363281 C-15.41218701 -1.8177949 -13.07155233 -1.8984892 -10.73046875 -1.9765625 C-10.00224411 -2.00875885 -9.27401947 -2.0409552 -8.52372742 -2.0741272 C-4.74726048 -2.18607509 -3.23492334 -2.15661556 0 0 Z " fill="#B7B2F9" transform="translate(224,158)"/>
<path d="M0 0 C12.33923575 -0.69408201 23.58819777 1.13738945 35 6 C35 6.33 35 6.66 35 7 C30.545 7.495 30.545 7.495 26 8 C26 7.34 26 6.68 26 6 C24.56342755 5.66269158 23.12569907 5.33030409 21.6875 5 C20.88699219 4.814375 20.08648437 4.62875 19.26171875 4.4375 C16.89304062 3.90504177 16.89304062 3.90504177 14 4 C13.34 3.34 12.68 2.68 12 2 C9.10776497 1.53603307 9.10776497 1.53603307 5.875 1.375 C4.23144531 1.26285156 4.23144531 1.26285156 2.5546875 1.1484375 C1.71164063 1.09945312 0.86859375 1.05046875 0 1 C0 0.67 0 0.34 0 0 Z " fill="#6644ED" transform="translate(108,49)"/>
<path d="M0 0 C-0.50789063 0.46148437 -1.01578125 0.92296875 -1.5390625 1.3984375 C-6.28736572 5.89776602 -9.66797873 10.33390469 -12.7734375 16.09375 C-13.17820313 16.7228125 -13.58296875 17.351875 -14 18 C-14.66 18 -15.32 18 -16 18 C-15.96570718 10.1297967 -15.96570718 10.1297967 -13.59765625 7.359375 C-12.10188172 6.19091113 -10.5534008 5.09068567 -9 4 C-9 3.34 -9 2.68 -9 2 C-8.01 2 -7.02 2 -6 2 C-6 1.34 -6 0.68 -6 0 C-2.25 -1.125 -2.25 -1.125 0 0 Z " fill="#BE8CFB" transform="translate(75,65)"/>
<path d="M0 0 C1.1484375 1.609375 1.1484375 1.609375 2 4 C1.1015625 7.015625 1.1015625 7.015625 -0.375 10.25 C-0.85710937 11.32765625 -1.33921875 12.4053125 -1.8359375 13.515625 C-2.22007813 14.33546875 -2.60421875 15.1553125 -3 16 C-7 16 -7 16 -9.25 14 C-11.58732034 9.99316514 -11.31056634 7.58085348 -11 3 C-10.67 3 -10.34 3 -10 3 C-9.67 5.31 -9.34 7.62 -9 10 C-8.01 9.67 -7.02 9.34 -6 9 C-5.34 9.66 -4.68 10.32 -4 11 C-2.50859979 7.37802806 -1.2125738 3.72433382 0 0 Z " fill="#140659" transform="translate(75,137)"/>
<path d="M0 0 C0.99 0.33 1.98 0.66 3 1 C4.16796875 3.984375 4.16796875 3.984375 5.1875 7.75 C5.53167969 8.98234375 5.87585938 10.2146875 6.23046875 11.484375 C6.88746147 14.4858646 7.16867859 16.95215233 7 20 C6.34 20 5.68 20 5 20 C4.28385417 18.30729167 3.56770833 16.61458333 2.8515625 14.921875 C2.02200944 12.9660638 2.02200944 12.9660638 0.90625 11.0625 C-0.1618187 8.63172297 -0.20268368 6.89124515 -0.125 4.25 C-0.10695312 3.45078125 -0.08890625 2.6515625 -0.0703125 1.828125 C-0.04710937 1.22484375 -0.02390625 0.6215625 0 0 Z " fill="#4984C3" transform="translate(235,51)"/>
<path d="M0 0 C2.125 0.375 2.125 0.375 4 1 C3.51917969 1.75539063 3.03835937 2.51078125 2.54296875 3.2890625 C0.16876791 8.03746419 0.43003015 13.17009345 0.3125 18.375 C0.27833984 19.39722656 0.24417969 20.41945313 0.20898438 21.47265625 C0.12691412 23.98166114 0.05763124 26.49033465 0 29 C-0.33 29 -0.66 29 -1 29 C-2.12555608 20.9804129 -2.08720471 13.08096998 -2 5 C-2 4.01 -2 3.02 -2 2 C-1.34 1.34 -0.68 0.68 0 0 Z " fill="#2C28AA" transform="translate(79,73)"/>
<path d="M0 0 C1.89144412 2.22039092 2.93507495 3.66725914 3.5 6.5625 C3.7592032 9.05637325 3.7592032 9.05637325 5.51953125 10.359375 C7.49053756 12.54360363 7.31318467 13.7967526 7.1875 16.6875 C7.16042969 17.49574219 7.13335938 18.30398437 7.10546875 19.13671875 C7.07066406 19.75160156 7.03585938 20.36648437 7 21 C2.62348942 17.12509522 0.34749864 11.33064077 -0.25390625 5.56640625 C-0.25059539 3.70901117 -0.13720912 1.85232316 0 0 Z " fill="#506DB9" transform="translate(6,135)"/>
<path d="M0 0 C-2.68841859 2.25245881 -4.64641875 3.88213958 -8 5 C-8 6.32 -8 7.64 -8 9 C-9.875 11.125 -9.875 11.125 -12 13 C-12.66 13.66 -13.32 14.32 -14 15 C-14.40949769 9.26703234 -12.83078541 5.89071381 -9.8125 1.125 C-6.7312614 -0.78749293 -3.55713136 -0.17494089 0 0 Z " fill="#325ED2" transform="translate(93,71)"/>
<path d="M0 0 C-1.39332574 3.36720387 -2.9789286 4.9859524 -6 7 C-6.66 6.67 -7.32 6.34 -8 6 C-8 6.66 -8 7.32 -8 8 C-10 9 -10 9 -13 9 C-12.66594467 5.99350204 -11.76111354 4.69085282 -9.875 2.25 C-6.32859745 -0.52544547 -4.3942304 -0.4308069 0 0 Z " fill="#223FA9" transform="translate(167,86)"/>
<path d="M0 0 C0.66 0 1.32 0 2 0 C2 1.32 2 2.64 2 4 C8.93 4 15.86 4 23 4 C23 4.33 23 4.66 23 5 C21.94941406 5.02578125 20.89882812 5.0515625 19.81640625 5.078125 C11.81846609 5.3685264 5.05086696 5.78906556 -2 10 C-1.85950482 8.52031676 -1.71245174 7.04125484 -1.5625 5.5625 C-1.48128906 4.73878906 -1.40007812 3.91507812 -1.31640625 3.06640625 C-1 1 -1 1 0 0 Z " fill="#3A30B1" transform="translate(85,63)"/>
<path d="M0 0 C1.98 0.99 1.98 0.99 4 2 C4 1.34 4 0.68 4 0 C4.99 0 5.98 0 7 0 C7 0.99 7 1.98 7 3 C6.34 3 5.68 3 5 3 C4.67 5.97 4.34 8.94 4 12 C2.68 11.67 1.36 11.34 0 11 C0 7.37 0 3.74 0 0 Z " fill="#8039DF" transform="translate(274,145)"/>
<path d="M0 0 C-1.2491742 3.45925163 -2.67527795 6.14693203 -5 9 C-5.99 8.67 -6.98 8.34 -8 8 C-8.625 5.6875 -8.625 5.6875 -9 3 C-6.27596221 -1.08605669 -4.4643819 -1.38549783 0 0 Z " fill="#3E68F5" transform="translate(105,32)"/>
<path d="M0 0 C-1 3 -1 3 -3.25 4.6875 C-6.18081532 6.08629822 -7.80483583 6.51813473 -11 6 C-11.66 5.01 -12.32 4.02 -13 3 C-12.01 2.67 -11.02 2.34 -10 2 C-10 1.34 -10 0.68 -10 0 C-2.25 -1.125 -2.25 -1.125 0 0 Z " fill="#E19CED" transform="translate(75,50)"/>
<path d="M0 0 C0.99 0.33 1.98 0.66 3 1 C0.36 6.28 -2.28 11.56 -5 17 C-5.66 17 -6.32 17 -7 17 C-6.67 12.71 -6.34 8.42 -6 4 C-5.01 5.485 -5.01 5.485 -4 7 C-3.34 7 -2.68 7 -2 7 C-2 5.35 -2 3.7 -2 2 C-1.34 2 -0.68 2 0 2 C0 1.34 0 0.68 0 0 Z " fill="#232C8D" transform="translate(85,117)"/>
<path d="M0 0 C-5.71089107 3.11398688 -10.44486898 5.3444869 -17 6 C-19.33588323 6.95584438 -19.33588323 6.95584438 -21 8 C-21.33 7.34 -21.66 6.68 -22 6 C-17.46218715 3.88664508 -12.90115492 1.87877818 -8.1875 0.1875 C-7.47980469 -0.06644531 -6.77210937 -0.32039063 -6.04296875 -0.58203125 C-3.70084693 -1.0612034 -2.24872076 -0.74283585 0 0 Z " fill="#6639D0" transform="translate(107,51)"/>
<path d="M0 0 C0.33 0.66 0.66 1.32 1 2 C-0.98 4.97 -0.98 4.97 -3 8 C-2.01 8.33 -1.02 8.66 0 9 C1.35622245 9.96873032 2.69417053 10.96434215 4 12 C2.39592672 12.02708567 0.7917215 12.04643483 -0.8125 12.0625 C-2.15248047 12.07990234 -2.15248047 12.07990234 -3.51953125 12.09765625 C-6 12 -6 12 -9 11 C-9 10.01 -9 9.02 -9 8 C-7.02053408 6.63636792 -5.0180755 5.30581356 -3 4 C-1.16699091 1.89424357 -1.16699091 1.89424357 0 0 Z " fill="#AEB4D7" transform="translate(61,176)"/>
<path d="M0 0 C3.32382587 4.33542505 4.12018668 6.47141274 4 12 C2.35 12 0.7 12 -1 12 C-1.33 10.02 -1.66 8.04 -2 6 C-1.34 6 -0.68 6 0 6 C0 4.02 0 2.04 0 0 Z " fill="#5864F2" transform="translate(277,101)"/>
<path d="M0 0 C-0.33 1.65 -0.66 3.3 -1 5 C-2.32 5.33 -3.64 5.66 -5 6 C-5.33 5.34 -5.66 4.68 -6 4 C-6.66 4 -7.32 4 -8 4 C-8.66 4.66 -9.32 5.32 -10 6 C-10.99 6 -11.98 6 -13 6 C-12.3125 3.5625 -12.3125 3.5625 -11 1 C-7.41404883 -0.29492681 -3.78328797 -0.08798344 0 0 Z " fill="#E79CF9" transform="translate(58,59)"/>
<path d="M0 0 C2.5 1.6875 2.5 1.6875 5 4 C5.3125 6.75 5.3125 6.75 5 9 C3.02 9 1.04 9 -1 9 C-2.1875 7.3125 -2.1875 7.3125 -3 5 C-1.625 2.25 -1.625 2.25 0 0 Z " fill="#5CBBF1" transform="translate(229,40)"/>
<path d="M0 0 C0.33 0 0.66 0 1 0 C0.67 2.31 0.34 4.62 0 7 C0.99 7.33 1.98 7.66 3 8 C-2.10334017 9.905247 -6.46342706 11.42589023 -12 11 C-10.0283713 9.68558087 -8.02817985 8.41285866 -6 7.1875 C-2.97562638 4.98222757 -1.72001071 3.25896766 0 0 Z " fill="#743FB5" transform="translate(237,177)"/>
<path d="M0 0 C0.66 0 1.32 0 2 0 C2 0.66 2 1.32 2 2 C3.32 1.67 4.64 1.34 6 1 C6.66 1.99 7.32 2.98 8 4 C8.99 4.33 9.98 4.66 11 5 C11 5.66 11 6.32 11 7 C9.35 7 7.7 7 6 7 C5.67 6.34 5.34 5.68 5 5 C4.34 5.66 3.68 6.32 3 7 C0.875 6.625 0.875 6.625 -1 6 C-0.67 4.02 -0.34 2.04 0 0 Z " fill="#4A8AF6" transform="translate(244,74)"/>
<path d="M0 0 C0.69921875 1.75 0.69921875 1.75 1 4 C-0.29296875 6 -0.29296875 6 -2.1875 8 C-2.83203125 8.6909375 -3.4765625 9.381875 -4.140625 10.09375 C-4.75421875 10.7228125 -5.3678125 11.351875 -6 12 C-6.804375 12.825 -7.60875 13.65 -8.4375 14.5 C-8.953125 14.995 -9.46875 15.49 -10 16 C-8.53291432 10.27836585 -5.58811438 5.63139763 -2 1 C-1.34 0.67 -0.68 0.34 0 0 Z " fill="#401FA9" transform="translate(68,73)"/>
<path d="M0 0 C0.33 0 0.66 0 1 0 C1.41859743 6.06966268 1.14344799 9.20232338 -3 14 C-6.0625 16.4375 -6.0625 16.4375 -9 18 C-9.99 17.67 -10.98 17.34 -12 17 C-9.766053 13.6490795 -8.11963979 12.82354566 -4.65625 11.0625 C-2.67612407 9.9484065 -2.67612407 9.9484065 -1 7 C-0.60612212 4.67612053 -0.26513915 2.34206251 0 0 Z " fill="#CBC0FC" transform="translate(237,169)"/>
<path d="M0 0 C0 2 0 2 -1.5 3.625 C-1.995 4.07875 -2.49 4.5325 -3 5 C-2.67 5.99 -2.34 6.98 -2 8 C-2.66 8 -3.32 8 -4 8 C-4 8.66 -4 9.32 -4 10 C-5.65 9.67 -7.3 9.34 -9 9 C-5.5 0 -5.5 0 0 0 Z " fill="#CA90D5" transform="translate(44,63)"/>
<path d="M0 0 C0.82242188 0.00451172 1.64484375 0.00902344 2.4921875 0.01367188 C4.49482396 0.02531511 6.49742227 0.04324444 8.5 0.0625 C8.5 0.3925 8.5 0.7225 8.5 1.0625 C7.40300781 1.11148437 6.30601562 1.16046875 5.17578125 1.2109375 C3.72133075 1.28600591 2.26690484 1.36155197 0.8125 1.4375 C-0.2693457 1.48390625 -0.2693457 1.48390625 -1.37304688 1.53125 C-5.53269358 1.75917585 -8.63050582 2.42750246 -12.5 4.0625 C-16.3125 3.6875 -16.3125 3.6875 -19.5 3.0625 C-15.06561371 -1.37188629 -5.97724865 -0.06327706 0 0 Z " fill="#4E97B9" transform="translate(163.5,4.9375)"/>
<path d="M0 0 C0.99 0 1.98 0 3 0 C3 1.65 3 3.3 3 5 C2.34 5 1.68 5 1 5 C-1.08379509 8.84700632 -2.49686624 12.90054429 -4 17 C-4.33 17 -4.66 17 -5 17 C-4.85904936 15.3745692 -4.71207913 13.74965949 -4.5625 12.125 C-4.48128906 11.22007813 -4.40007813 10.31515625 -4.31640625 9.3828125 C-4 7 -4 7 -3 5 C-2.34 5 -1.68 5 -1 5 C-0.67 3.35 -0.34 1.7 0 0 Z " fill="#CB97F5" transform="translate(15,92)"/>
<path d="M0 0 C-0.33 0.66 -0.66 1.32 -1 2 C-1.66 2 -2.32 2 -3 2 C-2.67 4.31 -2.34 6.62 -2 9 C-2.99 9 -3.98 9 -5 9 C-5 7.68 -5 6.36 -5 5 C-6.65 5 -8.3 5 -10 5 C-10.33 4.34 -10.66 3.68 -11 3 C-9.68 3 -8.36 3 -7 3 C-7 2.34 -7 1.68 -7 1 C-4.53721199 -0.231394 -2.7204945 -0.07159196 0 0 Z " fill="#E09BF2" transform="translate(87,46)"/>
<path d="M0 0 C0.66 0.66 1.32 1.32 2 2 C3.32 2 4.64 2 6 2 C5.67 3.65 5.34 5.3 5 7 C-1.52307692 5.52307692 -1.52307692 5.52307692 -3.9375 2.875 C-4.288125 2.25625 -4.63875 1.6375 -5 1 C-2.625 0.375 -2.625 0.375 0 0 Z " fill="#264DA3" transform="translate(29,169)"/>
<path d="M0 0 C0.99 0.33 1.98 0.66 3 1 C3 1.66 3 2.32 3 3 C3.88751953 3.00386719 3.88751953 3.00386719 4.79296875 3.0078125 C11.17025811 3.31991475 11.17025811 3.31991475 13.7109375 5.40234375 C15.0625 7.0625 15.0625 7.0625 17 10 C13.40142046 10 11.90548882 9.04169485 9 7 C9 6.34 9 5.68 9 5 C6.69 5 4.38 5 2 5 C1.34 3.35 0.68 1.7 0 0 Z " fill="#4C50F1" transform="translate(144,56)"/>
<path d="M0 0 C1.4540625 0.0309375 1.4540625 0.0309375 2.9375 0.0625 C2.9375 0.7225 2.9375 1.3825 2.9375 2.0625 C2.2775 2.0625 1.6175 2.0625 0.9375 2.0625 C1.5975 3.7125 2.2575 5.3625 2.9375 7.0625 C0.93795254 7.10504356 -1.06291636 7.10330783 -3.0625 7.0625 C-4.0625 6.0625 -4.0625 6.0625 -4.1875 3.5625 C-4.00295237 -0.12845252 -3.76342282 0.07680455 0 0 Z " fill="#3A29AB" transform="translate(189.0625,157.9375)"/>
<path d="M0 0 C5.35081749 1.01070997 10.36556324 1.98761611 15 5 C15.875 7.1875 15.875 7.1875 16 9 C13.69 8.67 11.38 8.34 9 8 C8.67 7.01 8.34 6.02 8 5 C6.13977928 3.76722873 6.13977928 3.76722873 3.9375 2.8125 C3.20402344 2.46832031 2.47054687 2.12414062 1.71484375 1.76953125 C1.14894531 1.51558594 0.58304688 1.26164063 0 1 C0 0.67 0 0.34 0 0 Z " fill="#5CA6C3" transform="translate(187,9)"/>
<path d="M0 0 C2.97 1.98 2.97 1.98 6 4 C4.58192622 8.47238653 2.88695626 12.71146306 1 17 C0.67 17 0.34 17 0 17 C-0.04254356 15.00045254 -0.04080783 12.99958364 0 11 C0.33 10.67 0.66 10.34 1 10 C1.15672777 6.47362528 1.04028969 3.38094149 0 0 Z " fill="#2B3DA3" transform="translate(65,150)"/>
<path d="M0 0 C-1.91411557 0.98414433 -3.8313967 1.96213349 -5.75 2.9375 C-7.35101563 3.75541016 -7.35101563 3.75541016 -8.984375 4.58984375 C-13.59380645 6.74529032 -13.59380645 6.74529032 -16 7 C-16.66 6.34 -17.32 5.68 -18 5 C-16.06305322 4.18618205 -14.12542289 3.37399084 -12.1875 2.5625 C-11.10855469 2.11003906 -10.02960938 1.65757813 -8.91796875 1.19140625 C-3.3032491 -1.10108303 -3.3032491 -1.10108303 0 0 Z " fill="#4179AA" transform="translate(139,9)"/>
<path d="M0 0 C3.63 0 7.26 0 11 0 C10.67 0.99 10.34 1.98 10 3 C10.66 3.33 11.32 3.66 12 4 C10.56416999 4.10836453 9.1259798 4.18576167 7.6875 4.25 C6.48673828 4.31960937 6.48673828 4.31960937 5.26171875 4.390625 C3 4 3 4 0 0 Z " fill="#2858D6" transform="translate(192,144)"/>
<path d="M0 0 C0 0.66 0 1.32 0 2 C-1.32 2.33 -2.64 2.66 -4 3 C-4 4.65 -4 6.3 -4 8 C-4.721875 7.62875 -5.44375 7.2575 -6.1875 6.875 C-9.60988311 5.81025859 -10.88228073 6.39660152 -14 8 C-13 5 -13 5 -10.8203125 3.61328125 C-9.93085938 3.18402344 -9.04140625 2.75476563 -8.125 2.3125 C-7.24070313 1.87550781 -6.35640625 1.43851563 -5.4453125 0.98828125 C-3 0 -3 0 0 0 Z " fill="#55AAF7" transform="translate(142,8)"/>
<path d="M0 0 C1.27875 -0.061875 2.5575 -0.12375 3.875 -0.1875 C4.95394531 -0.23970703 4.95394531 -0.23970703 6.0546875 -0.29296875 C6.69664063 -0.19628906 7.33859375 -0.09960938 8 0 C8.66 0.99 9.32 1.98 10 3 C6.78548731 4.60725635 3.56387464 4.05748185 0 4 C0 2.68 0 1.36 0 0 Z " fill="#1B35B8" transform="translate(43,178)"/>
<path d="M0 0 C0.33 0.66 0.66 1.32 1 2 C-2.43361902 5.63559661 -5.7973607 8.36113346 -10 11 C-8.67367286 5.36310966 -4.53368235 3.06814317 0 0 Z " fill="#3E69BE" transform="translate(111,20)"/>
<path d="M0 0 C0.33 0.99 0.66 1.98 1 3 C4.50294871 4.71567661 4.50294871 4.71567661 8 6 C8 6.66 8 7.32 8 8 C6.68 8 5.36 8 4 8 C4 7.34 4 6.68 4 6 C2.02 6.33 0.04 6.66 -2 7 C-2 6.34 -2 5.68 -2 5 C-2.66 4.67 -3.32 4.34 -4 4 C-2.68 2.68 -1.36 1.36 0 0 Z " fill="#62CEF9" transform="translate(206,18)"/>
<path d="M0 0 C2 1 2 1 3 3 C2.75 5.0625 2.75 5.0625 2 7 C1.01 7.33 0.02 7.66 -1 8 C-1.433125 7.525625 -1.86625 7.05125 -2.3125 6.5625 C-4.02309613 4.76313043 -4.02309613 4.76313043 -7 4 C-1.7265625 0.77734375 -1.7265625 0.77734375 0 0 Z " fill="#3D78C8" transform="translate(119,15)"/>
<path d="M0 0 C-2.65777049 2.65777049 -5.54304827 3.56953721 -9 5 C-10.34013497 5.65288627 -11.67741528 6.31225595 -13 7 C-13.99 6.01 -14.98 5.02 -16 4 C-14.35 4 -12.7 4 -11 4 C-10.67 3.01 -10.34 2.02 -10 1 C-6.76421296 -0.31828361 -3.44785988 -0.07836045 0 0 Z " fill="#2F3AA0" transform="translate(102,109)"/>
<path d="M0 0 C6.76215448 0.40939975 12.67162748 1.56953809 19 4 C19 4.33 19 4.66 19 5 C12.09232563 4.63176001 6.3618858 3.76081837 0 1 C0 0.67 0 0.34 0 0 Z " fill="#B290FD" transform="translate(114,46)"/>
<path d="M0 0 C0.556875 0.226875 1.11375 0.45375 1.6875 0.6875 C0.4190625 1.2134375 0.4190625 1.2134375 -0.875 1.75 C-5.10194647 4.13246074 -8.03874641 7.15223355 -11.3125 10.6875 C-11.9725 10.3575 -12.6325 10.0275 -13.3125 9.6875 C-5.04545455 -0.68181818 -5.04545455 -0.68181818 0 0 Z " fill="#D4DBF4" transform="translate(98.3125,111.3125)"/>
<path d="M0 0 C5.94 2.475 5.94 2.475 12 5 C11.01 6.485 11.01 6.485 10 8 C9.34 8 8.68 8 8 8 C8 7.34 8 6.68 8 6 C7.2575 6.103125 6.515 6.20625 5.75 6.3125 C3 6 3 6 0.6875 3.5 C0.130625 2.675 -0.42625 1.85 -1 1 C-0.67 0.67 -0.34 0.34 0 0 Z " fill="#456AD5" transform="translate(159,79)"/>
<path d="M0 0 C2 3 2 3 2 5 C2.99 5.33 3.98 5.66 5 6 C4.34 6.66 3.68 7.32 3 8 C1.72881136 7.20890398 0.45806377 6.41709922 -0.8125 5.625 C-1.52019531 5.18414062 -2.22789062 4.74328125 -2.95703125 4.2890625 C-4.65432039 3.21811524 -6.33014358 2.11323761 -8 1 C-5.36 0.67 -2.72 0.34 0 0 Z " fill="#4F47D8" transform="translate(152,67)"/>
<path d="M0 0 C2.98291012 5.11356021 4.36844835 11.10482642 4 17 C1.72822468 15.22208888 1.03727149 14.14569764 0.3125 11.3125 C-0.04657156 7.50634145 -0.06589696 3.82202339 0 0 Z " fill="#5466DB" transform="translate(53,121)"/>
<path d="M0 0 C4.43090471 1.20842856 6.98112756 2.51668565 10 6 C9.34 6 8.68 6 8 6 C8 6.66 8 7.32 8 8 C5.37812506 6.95125002 4.20628639 6.35068687 2.75 3.875 C2.5025 3.25625 2.255 2.6375 2 2 C1.34 2 0.68 2 0 2 C0 1.34 0 0.68 0 0 Z " fill="#336DCE" transform="translate(144,71)"/>
<path d="M0 0 C4.30738244 2.15369122 7.87871822 4.25446186 11 8 C11 8.66 11 9.32 11 10 C7.55245914 8.46775962 4.90206666 6.39420499 2 4 C0.67098936 2.99426222 -0.66073801 1.99204592 -2 1 C-1.34 0.67 -0.68 0.34 0 0 Z " fill="#8AB8FD" transform="translate(148,70)"/>
<path d="M0 0 C1.98 0 3.96 0 6 0 C5.67 0.99 5.34 1.98 5 3 C4.34 3 3.68 3 3 3 C2.67 3.99 2.34 4.98 2 6 C1.01 5.67 0.02 5.34 -1 5 C-0.67 3.35 -0.34 1.7 0 0 Z M-2 5 C-1.67 5.66 -1.34 6.32 -1 7 C-1.66 6.67 -2.32 6.34 -3 6 C-2.67 5.67 -2.34 5.34 -2 5 Z " fill="#4927C2" transform="translate(83,58)"/>
<path d="M0 0 C3.33161397 2.98696425 5.34826557 5.82719722 7 10 C6.57421875 12.1875 6.57421875 12.1875 6 14 C4.9923048 12.2335343 3.99408286 10.46166177 3 8.6875 C2.443125 7.70136719 1.88625 6.71523437 1.3125 5.69921875 C0 3 0 3 0 0 Z " fill="#100F76" transform="translate(57,133)"/>
<path d="M0 0 C1.04187157 3.12561472 1.23843794 4.04680182 0 7 C-0.66 7.309375 -1.32 7.61875 -2 7.9375 C-2.66 8.288125 -3.32 8.63875 -4 9 C-4.81171228 11.55519921 -4.81171228 11.55519921 -5 14 C-5.66 14 -6.32 14 -7 14 C-5.53967505 8.68972746 -3.01679014 4.53669968 0 0 Z " fill="#8B69A7" transform="translate(19,83)"/>
<path d="M0 0 C1.65 0 3.3 0 5 0 C4.01 2.31 3.02 4.62 2 7 C0.68 7 -0.64 7 -2 7 C-1.34 4.69 -0.68 2.38 0 0 Z " fill="#7725C2" transform="translate(239,177)"/>
<path d="M0 0 C0.33 0 0.66 0 1 0 C1.96205088 6.37358711 2.10655578 12.55929529 2 19 C1.01 19.33 0.02 19.66 -1 20 C-0.835 18.741875 -0.67 17.48375 -0.5 16.1875 C0.11073012 10.7855491 0.09133564 5.42939662 0 0 Z " fill="#110E71" transform="translate(77,113)"/>
<path d="M0 0 C1.32 0.66 2.64 1.32 4 2 C2.02 4.64 0.04 7.28 -2 10 C-3.19156292 5.23374833 -2.3415946 4.12120649 0 0 Z " fill="#642DA1" transform="translate(274,156)"/>
<path d="M0 0 C1.1484375 1.609375 1.1484375 1.609375 2 4 C1.1015625 7.015625 1.1015625 7.015625 -0.375 10.25 C-0.85710937 11.32765625 -1.33921875 12.4053125 -1.8359375 13.515625 C-2.22007813 14.33546875 -2.60421875 15.1553125 -3 16 C-4.23072344 12.30782967 -3.60450995 10.60432686 -2.625 6.875 C-2.34914063 5.79992187 -2.07328125 4.72484375 -1.7890625 3.6171875 C-1 1 -1 1 0 0 Z " fill="#1E1453" transform="translate(75,137)"/>
<path d="M0 0 C0.99 0.495 0.99 0.495 2 1 C1.01 1.495 1.01 1.495 0 2 C0 1.34 0 0.68 0 0 Z M-2 2 C-1.34 2.33 -0.68 2.66 0 3 C0 3.66 0 4.32 0 5 C-0.639375 5.28875 -1.27875 5.5775 -1.9375 5.875 C-4.15206079 6.82823451 -4.15206079 6.82823451 -5 9 C-5.66 9 -6.32 9 -7 9 C-7.33 9.66 -7.66 10.32 -8 11 C-8.33 10.01 -8.66 9.02 -9 8 C-6.69 6.02 -4.38 4.04 -2 2 Z " fill="#F9FCFA" transform="translate(156,100)"/>
<path d="M0 0 C2.01822917 0.06510417 4.03645833 0.13020833 6.0546875 0.1953125 C2.1496026 3.74538968 -0.92265893 5.01351166 -5.9453125 6.1953125 C-3.20430126 0.32171699 -3.20430126 0.32171699 0 0 Z " fill="#4A78DE" transform="translate(86.9453125,70.8046875)"/>
<path d="M0 0 C-9.41002278 4.22323462 -9.41002278 4.22323462 -14 6 C-14 5.34 -14 4.68 -14 4 C-13.34 4 -12.68 4 -12 4 C-11.67 3.01 -11.34 2.02 -11 1 C-6.90275533 -0.54613006 -4.18142349 -1.29227216 0 0 Z " fill="#C089FB" transform="translate(94,54)"/>
<path d="M0 0 C0.99 0.33 1.98 0.66 3 1 C3.33 2.65 3.66 4.3 4 6 C1.50907189 7.24546405 0.58919267 6.7767578 -2 6 C-1.125 1.125 -1.125 1.125 0 0 Z " fill="#62C7F4" transform="translate(224,34)"/>
<path d="M0 0 C0.7734375 0.433125 0.7734375 0.433125 1.5625 0.875 C4.62356725 2.28780027 7.74944918 3.1248517 11 4 C11 4.33 11 4.66 11 5 C7.37 5 3.74 5 0 5 C0 3.35 0 1.7 0 0 Z " fill="#2E67DA" transform="translate(187,129)"/>
<path d="M0 0 C1 3 1 3 0.1875 5.625 C-1 8 -1 8 -3 9 C-3.99 9 -4.98 9 -6 9 C-5.52797514 4.75177626 -3.03344482 2.80010291 0 0 Z " fill="#1D3AB3" transform="translate(160,86)"/>
<path d="M0 0 C3.37503669 1.1858237 5.64722731 2.27573689 8 5 C6 6 6 6 4.0546875 5.44140625 C3.33539063 5.15136719 2.61609375 4.86132812 1.875 4.5625 C1.15054688 4.27503906 0.42609375 3.98757812 -0.3203125 3.69140625 C-1.15175781 3.34916016 -1.15175781 3.34916016 -2 3 C-1.34 2.67 -0.68 2.34 0 2 C0 1.34 0 0.68 0 0 Z " fill="#51A1C2" transform="translate(207,18)"/>
<path d="M0 0 C3.53790403 3.69172595 3.59115883 7.09390595 4 12 C3.67 11.34 3.34 10.68 3 10 C2.34 10 1.68 10 1 10 C-0.60725635 6.78548731 -0.05748185 3.56387464 0 0 Z " fill="#6470B5" transform="translate(6,135)"/>
<path d="M0 0 C0.99 0.33 1.98 0.66 3 1 C3 2.98 3 4.96 3 7 C2.01 7.495 2.01 7.495 1 8 C1 7.34 1 6.68 1 6 C0.01 5.67 -0.98 5.34 -2 5 C-2 3.68 -2 2.36 -2 1 C-1.34 0.67 -0.68 0.34 0 0 Z " fill="#4B2ED8" transform="translate(162,72)"/>
<path d="M0 0 C1.98 0 3.96 0 6 0 C5.67 0.99 5.34 1.98 5 3 C5.66 3.33 6.32 3.66 7 4 C4.69 4 2.38 4 0 4 C0 2.68 0 1.36 0 0 Z " fill="#3D69F4" transform="translate(123,43)"/>
<path d="M0 0 C0.33 0.66 0.66 1.32 1 2 C1.99 1.67 2.98 1.34 4 1 C4.33 2.65 4.66 4.3 5 6 C3.35 6 1.7 6 0 6 C-1.125 2.25 -1.125 2.25 0 0 Z " fill="#3E39DE" transform="translate(165,73)"/>
<path d="M0 0 C0.66 0.33 1.32 0.66 2 1 C1.6875 2.875 1.6875 2.875 1 5 C-2 7 -2 7 -6 7 C-4.77065985 3.31197956 -3.06140622 2.27643027 0 0 Z " fill="#9F6FA9" transform="translate(36,66)"/>
<path d="M0 0 C-0.33 0.66 -0.66 1.32 -1 2 C-3.3306218 2.35179197 -5.66435067 2.68330179 -8 3 C-10.33588323 3.95584438 -10.33588323 3.95584438 -12 5 C-12.33 4.34 -12.66 3.68 -13 3 C-8.37802694 0.78145293 -5.23175837 -0.38281159 0 0 Z " fill="#5932CB" transform="translate(98,54)"/>
<path d="M0 0 C2.475 0.99 2.475 0.99 5 2 C3.6875 4.5 3.6875 4.5 2 7 C1.01 7 0.02 7 -1 7 C-0.67 4.69 -0.34 2.38 0 0 Z " fill="#7C2FC7" transform="translate(258,170)"/>
<path d="M0 0 C0.6875 1.6875 0.6875 1.6875 1 4 C-0.3125 6.75 -0.3125 6.75 -2 9 C-2.66 9 -3.32 9 -4 9 C-3.38461538 3.46153846 -3.38461538 3.46153846 -1.4375 1.125 C-0.963125 0.75375 -0.48875 0.3825 0 0 Z " fill="#AE86F9" transform="translate(63,74)"/>
<path d="M0 0 C1.125 3.75 1.125 3.75 0 6 C-1.64363134 6.72159424 -3.31050386 7.39351421 -5 8 C-5 6.35 -5 4.7 -5 3 C-4.67 3.66 -4.34 4.32 -4 5 C-2.68 3.35 -1.36 1.7 0 0 Z " fill="#1C30A7" transform="translate(64,165)"/>
<path d="M0 0 C2.475 0.495 2.475 0.495 5 1 C5.33 2.65 5.66 4.3 6 6 C4.125 5.8125 4.125 5.8125 2 5 C0.75 2.4375 0.75 2.4375 0 0 Z " fill="#326CDE" transform="translate(21,164)"/>
<path d="M0 0 C0.66 0.99 1.32 1.98 2 3 C1.01 4.485 1.01 4.485 0 6 C-1.32 6 -2.64 6 -4 6 C-4 6.66 -4 7.32 -4 8 C-4.66 7.67 -5.32 7.34 -6 7 C-4.02 4.69 -2.04 2.38 0 0 Z " fill="#F5FAFC" transform="translate(224,131)"/>
<path d="M0 0 C0 0.66 0 1.32 0 2 C-0.66 2 -1.32 2 -2 2 C-2 2.66 -2 3.32 -2 4 C-3.65 3.67 -5.3 3.34 -7 3 C-6.67 2.01 -6.34 1.02 -6 0 C-3.50907189 -1.24546405 -2.58919267 -0.7767578 0 0 Z " fill="#E89DFB" transform="translate(42,69)"/>
<path d="M0 0 C-0.66 0 -1.32 0 -2 0 C-2 0.66 -2 1.32 -2 2 C-5.63 2.33 -9.26 2.66 -13 3 C-8.8341563 0.22277086 -4.9360889 -1.89849573 0 0 Z " fill="#8D6297" transform="translate(82,47)"/>
<path d="M0 0 C0.99 0.33 1.98 0.66 3 1 C3 2.65 3 4.3 3 6 C1.35 5.67 -0.3 5.34 -2 5 C-2 4.34 -2 3.68 -2 3 C-1.34 3 -0.68 3 0 3 C0 2.01 0 1.02 0 0 Z " fill="#56A8D8" transform="translate(231,43)"/>
<path d="M0 0 C2.15377564 2.62198774 3.40072174 4.64404172 4 8 C2.68 8 1.36 8 0 8 C0 5.36 0 2.72 0 0 Z " fill="#4753B2" transform="translate(277,101)"/>
<path d="M0 0 C2.71224618 1.61268692 5.37352812 3.24901874 8 5 C7.67 5.66 7.34 6.32 7 7 C5.02 6.34 3.04 5.68 1 5 C0.67 3.35 0.34 1.7 0 0 Z " fill="#4164AC" transform="translate(258,80)"/>
<path d="M0 0 C0.66 0 1.32 0 2 0 C2 1.98 2 3.96 2 6 C0.68 5.67 -0.64 5.34 -2 5 C-1.125 1.125 -1.125 1.125 0 0 Z " fill="#AF7AC4" transform="translate(28,73)"/>
<path d="M0 0 C1.258125 -0.04125 2.51625 -0.0825 3.8125 -0.125 C4.52019531 -0.14820313 5.22789062 -0.17140625 5.95703125 -0.1953125 C8 0 8 0 11 2 C3.57142857 3.28571429 3.57142857 3.28571429 0 2 C0 1.34 0 0.68 0 0 Z " fill="#5BAEC6" transform="translate(176,7)"/>
<path d="M0 0 C0.99 0.33 1.98 0.66 3 1 C2.67 2.65 2.34 4.3 2 6 C0.68 5.67 -0.64 5.34 -2 5 C-1.125 1.125 -1.125 1.125 0 0 Z " fill="#2856CE" transform="translate(32,170)"/>
<path d="M0 0 C0.33 0 0.66 0 1 0 C0.56179109 4.55737263 0.14958831 7.57653445 -3 11 C-2.67 8.36 -2.34 5.72 -2 3 C-1.34 3 -0.68 3 0 3 C0 2.01 0 1.02 0 0 Z " fill="#5A2D96" transform="translate(281,145)"/>
<path d="M0 0 C0.66 0.33 1.32 0.66 2 1 C1.11223998 4.69900008 0.05418136 8.34550461 -1 12 C-1.33 12 -1.66 12 -2 12 C-1.85904936 10.3745692 -1.71207913 8.74965949 -1.5625 7.125 C-1.48128906 6.22007813 -1.40007813 5.31515625 -1.31640625 4.3828125 C-1 2 -1 2 0 0 Z " fill="#C19AEE" transform="translate(12,97)"/>
<path d="M0 0 C1.8125 0.0625 1.8125 0.0625 4 1 C5.75 4.5625 5.75 4.5625 7 8 C6.34 8 5.68 8 5 8 C0 2.52380952 0 2.52380952 0 0 Z " fill="#2C5192" transform="translate(17,162)"/>
<path d="M0 0 C0.99 0.495 0.99 0.495 2 1 C2 1.99 2 2.98 2 4 C2.66 4 3.32 4 4 4 C4.33 5.32 4.66 6.64 5 8 C4.01 8.33 3.02 8.66 2 9 C1.34 6.03 0.68 3.06 0 0 Z " fill="#3E50A6" transform="translate(272,93)"/>
<path d="M0 0 C2.31 0.66 4.62 1.32 7 2 C7 2.99 7 3.98 7 5 C6.01 5 5.02 5 4 5 C4 4.34 4 3.68 4 3 C3.01 3 2.02 3 1 3 C0.67 2.01 0.34 1.02 0 0 Z " fill="#3A5FA2" transform="translate(242,71)"/>
<path d="M0 0 C2.92879371 0.62759865 5.36095629 1.58622659 8 3 C8 3.66 8 4.32 8 5 C5.6875 5.3125 5.6875 5.3125 3 5 C1.1875 2.5 1.1875 2.5 0 0 Z " fill="#4E65FA" transform="translate(144,54)"/>
<path d="M0 0 C2.97 0 5.94 0 9 0 C8.01 0.495 8.01 0.495 7 1 C7 1.66 7 2.32 7 3 C2.25 2.25 2.25 2.25 0 0 Z " fill="#313C85" transform="translate(45,183)"/>
<path d="M0 0 C2.83374881 3.20336822 3.5205537 5.78087253 4 10 C3.67 9.34 3.34 8.68 3 8 C2.34 8 1.68 8 1 8 C0.67 5.36 0.34 2.72 0 0 Z " fill="#3959CE" transform="translate(57,136)"/>
<path d="M0 0 C5.75 1.625 5.75 1.625 8 5 C5.125 4.75 5.125 4.75 2 4 C0.625 1.9375 0.625 1.9375 0 0 Z " fill="#3C60A2" transform="translate(250,75)"/>
<path d="M0 0 C2.475 0.99 2.475 0.99 5 2 C4.67 2.66 4.34 3.32 4 4 C3.34 4 2.68 4 2 4 C1.67 4.99 1.34 5.98 1 7 C0 4 0 4 0 0 Z " fill="#52A5C0" transform="translate(202,15)"/>
<path d="M0 0 C6.625 0.75 6.625 0.75 10 3 C5.25 4.125 5.25 4.125 3 3 C3 2.34 3 1.68 3 1 C2.01 0.67 1.02 0.34 0 0 Z " fill="#6ECCF5" transform="translate(182,9)"/>
</svg>
